<svg xmlns="http://www.w3.org/2000/svg" width="30.429" height="24.724" viewBox="0 0 30.429 24.724">
  <g id="Group_1335" data-name="Group 1335" transform="translate(6690 15915.999)">
    <rect id="Rectangle_686" data-name="Rectangle 686" width="1.521" height="10.65" rx="0.5" transform="translate(-6668.7 -15908.392)" fill="#ff725f"/>
    <rect id="Rectangle_687" data-name="Rectangle 687" width="1.521" height="18.258" rx="0.5" transform="translate(-6665.657 -15911.435)" fill="#ff725f"/>
    <path id="Path_9624" data-name="Path 9624" d="M29.8,4.035,16.485.047a1.106,1.106,0,0,0-.867.1.768.768,0,0,0-.4.651V7.178h1.9V1.93L28.527,5.348V23.13H19.018V9.571a.884.884,0,0,0-.951-.8H5.705a.884.884,0,0,0-.951.8V23.13h-1.9V12.761H.951a.884.884,0,0,0-.951.8V23.927a.884.884,0,0,0,.951.8H29.478a.884.884,0,0,0,.951-.8V4.786A.82.82,0,0,0,29.8,4.035Zm-16.01,16.7h-3.8a.442.442,0,0,1-.475-.4v-.8a.442.442,0,0,1,.475-.4h3.8a.442.442,0,0,1,.475.4v.8A.442.442,0,0,1,13.788,20.737Zm0-3.19h-3.8a.442.442,0,0,1-.475-.4v-.8a.442.442,0,0,1,.475-.4h3.8a.442.442,0,0,1,.475.4v.8A.442.442,0,0,1,13.788,17.547Zm0-3.19h-3.8a.442.442,0,0,1-.475-.4v-.8a.442.442,0,0,1,.475-.4h3.8a.442.442,0,0,1,.475.4v.8A.442.442,0,0,1,13.788,14.356Z" transform="translate(-6690 -15916)" fill="#ff725f"/>
  </g>
</svg>
