<svg id="ic_domain_24px" xmlns="http://www.w3.org/2000/svg" width="29.057" height="26.151" viewBox="0 0 29.057 26.151">
  <path id="Path_508" data-name="Path 508" d="M16.528,8.811V3H2V29.151H31.057V8.811ZM7.811,26.246H4.906V23.34H7.811Zm0-5.811H4.906V17.528H7.811Zm0-5.811H4.906V11.717H7.811Zm0-5.811H4.906V5.906H7.811Zm5.811,17.434H10.717V23.34h2.906Zm0-5.811H10.717V17.528h2.906Zm0-5.811H10.717V11.717h2.906Zm0-5.811H10.717V5.906h2.906ZM28.151,26.246H16.528V23.34h2.906V20.434H16.528V17.528h2.906V14.623H16.528V11.717H28.151ZM25.246,14.623H22.34v2.906h2.906Zm0,5.811H22.34V23.34h2.906Z" transform="translate(-2 -3)" fill="#ff725f"/>
</svg>
