<svg xmlns="http://www.w3.org/2000/svg" xmlns:xlink="http://www.w3.org/1999/xlink" width="249.324" height="77.773" viewBox="0 0 249.324 77.773">
  <defs>
    <linearGradient id="linear-gradient" x1="0.5" x2="0.5" y2="1" gradientUnits="objectBoundingBox">
      <stop offset="0" stop-color="#fd4965"/>
      <stop offset="1" stop-color="#fd7363"/>
    </linearGradient>
    <clipPath id="clip-path">
      <path id="Path_9657" data-name="Path 9657" d="M149.4-162.9v-.324h-8.955c-3.739,0-5.216,1.108-5.216,3.324,0,2.307,2.123,3.785,5.723,3.785,5.17,0,8.448-2.632,8.448-6.785m-17.632,3c0-3.232,2.261-6,8.354-6H149.4v-1.663c0-3.923-2.308-5.816-6.97-5.816-4.2,0-6.509,1.57-6.509,4.663a6.651,6.651,0,0,0,.046.831h-3.415a12.293,12.293,0,0,1-.093-1.385c0-4.523,3.877-7.246,10.063-7.246,6.693,0,10.57,3.323,10.57,9.277v13.894H149.4c.046-1.062.139-3.185.185-5.4h-.046c-.786,3.509-3.647,5.771-9.324,5.771-5.17,0-8.447-2.632-8.447-6.924" transform="translate(-131.769 176.513)" fill="none"/>
    </clipPath>
    <clipPath id="clip-path-2">
      <path id="Path_9656" data-name="Path 9656" d="M0-134.292H175.636V-204H0Z" transform="translate(0 204)" fill="none"/>
    </clipPath>
    <clipPath id="clip-path-4">
      <path id="Path_9662" data-name="Path 9662" d="M227.341-162.9v-.324h-8.955c-3.739,0-5.216,1.108-5.216,3.324,0,2.307,2.123,3.785,5.723,3.785,5.17,0,8.448-2.632,8.448-6.785m-17.632,3c0-3.232,2.261-6,8.354-6h9.278v-1.663c0-3.923-2.308-5.816-6.97-5.816-4.2,0-6.509,1.57-6.509,4.663a6.644,6.644,0,0,0,.046.831h-3.415a12.3,12.3,0,0,1-.093-1.385c0-4.523,3.877-7.246,10.063-7.246,6.693,0,10.57,3.323,10.57,9.277v13.894h-3.692c.046-1.062.139-3.185.185-5.4h-.046c-.786,3.509-3.647,5.771-9.324,5.771-5.17,0-8.447-2.632-8.447-6.924" transform="translate(-209.708 176.513)" fill="none"/>
    </clipPath>
    <clipPath id="clip-path-6">
      <path id="Path_9664" data-name="Path 9664" d="M0-161.039H175.636V-204H0Z" transform="translate(0 204)" fill="none"/>
    </clipPath>
    <clipPath id="clip-path-7">
      <path id="Path_9667" data-name="Path 9667" d="M307.357-164.559v-1.107c0-4.57-3.185-7.525-8.217-7.525-4.569,0-7.8,3.278-7.8,8.309,0,5.307,3.093,8.585,7.708,8.585,5.077,0,8.309-3.232,8.309-8.263Zm0,5.4h-.046c-.831,3.785-4.339,6.186-9,6.186-6.417,0-10.662-4.57-10.662-11.909,0-7.062,4.431-11.632,10.894-11.632,4.939,0,7.984,2.03,8.816,5.169h.046v-4.8h3.646V-144.2h-3.692Z" transform="translate(-287.647 176.513)" fill="none"/>
    </clipPath>
    <clipPath id="clip-path-10">
      <path id="Path_9672" data-name="Path 9672" d="M390.647-162.9v-.324h-8.955c-3.739,0-5.216,1.108-5.216,3.324,0,2.307,2.123,3.785,5.723,3.785,5.17,0,8.448-2.632,8.448-6.785m-17.632,3c0-3.232,2.261-6,8.354-6h9.278v-1.663c0-3.923-2.308-5.816-6.97-5.816-4.2,0-6.509,1.57-6.509,4.663a6.642,6.642,0,0,0,.046.831H373.8a12.285,12.285,0,0,1-.093-1.385c0-4.523,3.877-7.246,10.063-7.246,6.693,0,10.57,3.323,10.57,9.277v13.894h-3.693c.046-1.062.139-3.185.185-5.4h-.046c-.786,3.509-3.647,5.771-9.324,5.771-5.17,0-8.447-2.632-8.447-6.924" transform="translate(-373.015 176.513)" fill="none"/>
    </clipPath>
    <clipPath id="clip-path-13">
      <path id="Path_9677" data-name="Path 9677" d="M453.655-176.145h3.692l-.093,6.6h.047c1.062-3.97,3.416-6.969,8.309-6.969,5.123,0,7.847,3.415,7.847,8.908a40.313,40.313,0,0,1-.231,4.062h-3.37a26.12,26.12,0,0,0,.185-3.277c0-4.2-1.569-6.37-5.309-6.37-4.662,0-7.385,4.062-7.385,9.739v10.109h-3.692Z" transform="translate(-453.655 176.513)" fill="none"/>
    </clipPath>
    <clipPath id="clip-path-16">
      <path id="Path_9681" data-name="Path 9681" d="M83.129-170.338h3.693v-31.988H83.129Z" transform="translate(-83.129 202.326)" fill="none"/>
    </clipPath>
    <clipPath id="clip-path-18">
      <path id="Path_9686" data-name="Path 9686" d="M5.271-132.47a2.775,2.775,0,0,1,1.065-2.373H2.4a4.864,4.864,0,0,0-.588,2.373c0,4.293,3.278,6.929,8.45,6.929,3.278,0,5.622-.766,7.154-2.084v-3.132a9.443,9.443,0,0,1-6.422,2.073c-3.594,0-5.723-1.476-5.723-3.785" transform="translate(-1.812 134.843)" fill="none"/>
    </clipPath>
    <clipPath id="clip-path-21">
      <path id="Path_9691" data-name="Path 9691" d="M18.792-143.779c-1.5,0-3.64,2.474-4.066,3.125a6.531,6.531,0,0,1,2.747-.507c2.246.086,4.492.064,6.743.064h1.832v-2.681Z" transform="translate(-14.727 143.779)" fill="none"/>
    </clipPath>
    <clipPath id="clip-path-24">
      <path id="Path_9696" data-name="Path 9696" d="M13.884-176.531c-6.185,0-10.061,2.726-10.061,7.244,0,.383.033,3.572.079,4.62a5.851,5.851,0,0,1,3.391-2.5c-.011-1.6-.011-1.476-.011-1.555,0-3.1,2.31-4.664,6.512-4.664,4.664,0,6.974,1.893,6.974,5.813v.541h.011v8.765c-.045,2.118.045,3.639,0,4.743v.169h3.684v-13.891c0-5.96-3.887-9.283-10.579-9.283" transform="translate(-3.823 176.531)" fill="none"/>
    </clipPath>
    <clipPath id="clip-path-27">
      <path id="Path_9700" data-name="Path 9700" d="M110.151-118.131h3.693v-4.9h-3.693Z" transform="translate(-110.151 123.03)" fill="none"/>
    </clipPath>
    <clipPath id="clip-path-31">
      <path id="Path_9719" data-name="Path 9719" d="M343.088-25.531v3.2" transform="translate(-343.088 25.531)" fill="none"/>
    </clipPath>
    <clipPath id="clip-path-32">
      <path id="Path_9718" data-name="Path 9718" d="M0-134.292H514V-204H0Z" transform="translate(0 204)" fill="none"/>
    </clipPath>
    <clipPath id="clip-path-33">
      <path id="Path_9724" data-name="Path 9724" d="M343.088-26.023v3.2" transform="translate(-343.088 26.023)" fill="none"/>
    </clipPath>
  </defs>
  <g id="Group_1843" data-name="Group 1843" transform="translate(-835 -91.227)">
    <g id="Group_6" data-name="Group 6" transform="translate(836 92.227)">
      <g id="Group_1602" data-name="Group 1602">
        <path id="Path_23" data-name="Path 23" d="M7.754,225.857a6.217,6.217,0,0,1,2.387-5.317H1.319A10.892,10.892,0,0,0,0,225.857c0,9.619,7.349,15.526,18.942,15.526,7.349,0,12.6-1.717,16.037-4.67v-7.018c-3.283,2.954-8.234,4.645-14.4,4.645-8.057,0-12.83-3.307-12.83-8.483" transform="translate(0 -188.62)" stroke="#fd6363" stroke-width="2" fill="url(#linear-gradient)"/>
        <path id="Path_24" data-name="Path 24" d="M77.466,173.267c-3.361,0-8.159,5.544-9.114,7a14.646,14.646,0,0,1,6.157-1.137c5.034.194,10.071.143,15.115.143h4.107v-6.009Z" transform="translate(-58.459 -148.189)" stroke="#fd5b64" stroke-width="2" fill="url(#linear-gradient)"/>
        <path id="Path_25" data-name="Path 25" d="M33.2,0C19.332,0,10.644,6.11,10.644,16.233c0,.858.076,8,.177,10.351a13.115,13.115,0,0,1,7.6-5.6C18.4,17.394,18.4,17.672,18.4,17.5c0-6.943,5.178-10.452,14.6-10.452,10.456,0,15.633,4.241,15.633,13.027v1.212h.025V40.924c-.1,4.746.1,8.154,0,10.629v.379h8.259V20.8C56.913,7.448,48.2,0,33.2,0" transform="translate(-9.103 0)" stroke="#fd6163" stroke-width="2" fill="url(#linear-gradient)"/>
      </g>
    </g>
    <g id="Group_1571" data-name="Group 1571" transform="translate(908.688 99.292)">
      <g id="Group_1464" data-name="Group 1464" transform="translate(45.026 9.392)" clip-path="url(#clip-path)">
        <g id="Group_1463" data-name="Group 1463" transform="translate(-45.026 -9.392)" clip-path="url(#clip-path-2)">
          <path id="Path_9655" data-name="Path 9655" d="M130.769-177.513h22.008v24.224H130.769Z" transform="translate(-86.085 186.564)" fill="#174d46"/>
        </g>
      </g>
      <g id="Group_1466" data-name="Group 1466" clip-path="url(#clip-path-2)">
        <g id="Group_1465" data-name="Group 1465" transform="translate(44.514 8.88)">
          <path id="Path_9658" data-name="Path 9658" d="M7.459,23.066A10.14,10.14,0,0,1,.973,21.1,6.8,6.8,0,0,1-1.5,15.63,5.766,5.766,0,0,1,.578,11.022C2.109,9.758,4.393,9.116,7.367,9.116h8.766V7.966a6.459,6.459,0,0,0-.4-2.375,3.909,3.909,0,0,0-1.154-1.61A5.242,5.242,0,0,0,12.6,3a11.192,11.192,0,0,0-2.92-.339A7.889,7.889,0,0,0,5.141,3.741,3.305,3.305,0,0,0,4.054,5a4.126,4.126,0,0,0-.375,1.81,6.161,6.161,0,0,0,.042.767l.072.576H-.648l-.063-.44a12.7,12.7,0,0,1-.1-1.458A6.787,6.787,0,0,1,2.118.523,13.149,13.149,0,0,1,9.767-1.5a15.676,15.676,0,0,1,4.627.635,9.605,9.605,0,0,1,3.5,1.9,8.156,8.156,0,0,1,2.2,3.1A10.98,10.98,0,0,1,20.85,8.29V22.7H16.11l.024-.556c.026-.6.069-1.578.109-2.723a6.913,6.913,0,0,1-2,2A12.232,12.232,0,0,1,7.459,23.066ZM7.367,10.142a13.522,13.522,0,0,0-3.733.463,6.647,6.647,0,0,0-2.4,1.208,4.546,4.546,0,0,0-1.3,1.719,5.281,5.281,0,0,0-.407,2.1,6.411,6.411,0,0,0,.547,2.68A5.506,5.506,0,0,0,1.621,20.3a9.144,9.144,0,0,0,5.838,1.737,11.253,11.253,0,0,0,6.214-1.485,5.921,5.921,0,0,0,1.693-1.674,6.584,6.584,0,0,0,.917-2.211l.09-.4h.98l-.011.523c-.039,1.889-.113,3.736-.162,4.878h2.645V8.29a9.965,9.965,0,0,0-.673-3.768A7.14,7.14,0,0,0,17.225,1.8,8.59,8.59,0,0,0,14.091.114,14.659,14.659,0,0,0,9.767-.475,12.156,12.156,0,0,0,2.715,1.356a5.918,5.918,0,0,0-1.852,2.1A6.052,6.052,0,0,0,.217,6.259c0,.249.018.585.041.873h2.4c0-.139,0-.25,0-.318a5.137,5.137,0,0,1,.478-2.257A4.319,4.319,0,0,1,4.549,2.9,8.849,8.849,0,0,1,9.675,1.638a12.2,12.2,0,0,1,3.191.375,6.253,6.253,0,0,1,2.37,1.18,4.976,4.976,0,0,1,1.452,2.021,7.469,7.469,0,0,1,.47,2.753v2.175ZM8.2,19.927a8.12,8.12,0,0,1-4.5-1.114,3.957,3.957,0,0,1-1.287-1.371,3.706,3.706,0,0,1-.452-1.812A3.835,3.835,0,0,1,2.3,13.956a3.054,3.054,0,0,1,1.1-1.247,7.844,7.844,0,0,1,4.293-.916h9.467v.836a7.1,7.1,0,0,1-.641,3.029,6.475,6.475,0,0,1-1.836,2.32A10.236,10.236,0,0,1,8.2,19.927ZM7.69,12.818a6.94,6.94,0,0,0-3.727.746,2.251,2.251,0,0,0-.977,2.066,2.685,2.685,0,0,0,1.285,2.332A7.131,7.131,0,0,0,8.2,18.9a9.239,9.239,0,0,0,5.842-1.722,5.591,5.591,0,0,0,2.091-4.362Z" transform="translate(1.5 1.5)" fill="#184d47"/>
        </g>
      </g>
      <g id="Group_1468" data-name="Group 1468" transform="translate(71.658 9.392)" clip-path="url(#clip-path-4)">
        <g id="Group_1467" data-name="Group 1467" transform="translate(-71.658 -9.392)" clip-path="url(#clip-path-2)">
          <path id="Path_9660" data-name="Path 9660" d="M208.708-177.513h22.008v24.224H208.708Z" transform="translate(-137.392 186.564)" fill="#174d46"/>
        </g>
      </g>
      <g id="Group_1470" data-name="Group 1470" clip-path="url(#clip-path-6)">
        <g id="Group_1469" data-name="Group 1469" transform="translate(71.146 8.88)">
          <path id="Path_9663" data-name="Path 9663" d="M7.459,23.066A10.14,10.14,0,0,1,.973,21.1,6.8,6.8,0,0,1-1.5,15.63,5.766,5.766,0,0,1,.578,11.022C2.109,9.758,4.393,9.116,7.367,9.116h8.766V7.966a6.459,6.459,0,0,0-.4-2.375,3.909,3.909,0,0,0-1.154-1.61A5.242,5.242,0,0,0,12.6,3a11.192,11.192,0,0,0-2.92-.339A7.889,7.889,0,0,0,5.141,3.741,3.305,3.305,0,0,0,4.054,5a4.126,4.126,0,0,0-.375,1.81,6.161,6.161,0,0,0,.042.767l.072.576H-.648l-.063-.44a12.7,12.7,0,0,1-.1-1.458A6.787,6.787,0,0,1,2.118.523,13.149,13.149,0,0,1,9.767-1.5a15.676,15.676,0,0,1,4.627.635,9.605,9.605,0,0,1,3.5,1.9,8.156,8.156,0,0,1,2.2,3.1A10.98,10.98,0,0,1,20.85,8.29V22.7H16.11l.024-.556c.026-.6.069-1.578.109-2.723a6.913,6.913,0,0,1-2,2A12.232,12.232,0,0,1,7.459,23.066ZM7.367,10.142a13.522,13.522,0,0,0-3.733.463,6.647,6.647,0,0,0-2.4,1.208,4.546,4.546,0,0,0-1.3,1.719,5.281,5.281,0,0,0-.407,2.1,6.411,6.411,0,0,0,.547,2.68A5.506,5.506,0,0,0,1.621,20.3a9.144,9.144,0,0,0,5.838,1.737,11.253,11.253,0,0,0,6.214-1.485,5.921,5.921,0,0,0,1.693-1.674,6.584,6.584,0,0,0,.917-2.211l.09-.4h.98l-.011.523c-.039,1.889-.113,3.736-.162,4.878h2.645V8.29a9.965,9.965,0,0,0-.673-3.768A7.14,7.14,0,0,0,17.225,1.8,8.59,8.59,0,0,0,14.091.114,14.659,14.659,0,0,0,9.767-.475,12.156,12.156,0,0,0,2.715,1.356a5.918,5.918,0,0,0-1.852,2.1A6.052,6.052,0,0,0,.217,6.259c0,.249.018.585.041.873h2.4c0-.139,0-.25,0-.318a5.137,5.137,0,0,1,.478-2.257A4.319,4.319,0,0,1,4.549,2.9,8.849,8.849,0,0,1,9.675,1.638a12.2,12.2,0,0,1,3.191.375,6.253,6.253,0,0,1,2.37,1.18,4.976,4.976,0,0,1,1.452,2.021,7.469,7.469,0,0,1,.47,2.753v2.175ZM8.2,19.927a8.12,8.12,0,0,1-4.5-1.114,3.957,3.957,0,0,1-1.287-1.371,3.706,3.706,0,0,1-.452-1.812A3.835,3.835,0,0,1,2.3,13.956a3.054,3.054,0,0,1,1.1-1.247,7.844,7.844,0,0,1,4.293-.916h9.467v.836a7.1,7.1,0,0,1-.641,3.029,6.475,6.475,0,0,1-1.836,2.32A10.236,10.236,0,0,1,8.2,19.927ZM7.69,12.818a6.94,6.94,0,0,0-3.727.746,2.251,2.251,0,0,0-.977,2.066,2.685,2.685,0,0,0,1.285,2.332A7.131,7.131,0,0,0,8.2,18.9a9.239,9.239,0,0,0,5.842-1.722,5.591,5.591,0,0,0,2.091-4.362Z" transform="translate(1.5 1.5)" fill="#184d47"/>
        </g>
      </g>
      <g id="Group_1472" data-name="Group 1472" transform="translate(98.291 9.393)" clip-path="url(#clip-path-7)">
        <g id="Group_1471" data-name="Group 1471" transform="translate(-98.291 -9.393)" clip-path="url(#clip-path-2)">
          <path id="Path_9665" data-name="Path 9665" d="M286.647-177.513h24.085v32.994H286.647Z" transform="translate(-188.699 186.563)" fill="#174d46"/>
        </g>
      </g>
      <g id="Group_1474" data-name="Group 1474" clip-path="url(#clip-path-2)">
        <g id="Group_1473" data-name="Group 1473" transform="translate(97.778 8.88)">
          <path id="Path_9668" data-name="Path 9668" d="M9.906-1.5a14.849,14.849,0,0,1,3.464.38,9.644,9.644,0,0,1,2.75,1.1A7.054,7.054,0,0,1,18.1,1.739q.082.108.159.219v-3.09h4.671V31.835H18.21V18.895A7.964,7.964,0,0,1,15.9,21.3a10.933,10.933,0,0,1-6.227,1.763A11.8,11.8,0,0,1,5.1,22.2a9.878,9.878,0,0,1-3.547-2.5A13.21,13.21,0,0,1-1.5,10.644,14.531,14.531,0,0,1-.676,5.672,11.02,11.02,0,0,1,1.663,1.828,10.273,10.273,0,0,1,5.284-.638,12.206,12.206,0,0,1,9.906-1.5Zm9.375,6.194h-.953l-.1-.381a5.569,5.569,0,0,0-.947-1.953,6.035,6.035,0,0,0-1.692-1.5A8.624,8.624,0,0,0,13.13-.123,13.828,13.828,0,0,0,9.906-.475,11.188,11.188,0,0,0,5.671.312,9.255,9.255,0,0,0,2.408,2.532,10,10,0,0,0,.288,6.022a13.511,13.511,0,0,0-.762,4.622,12.212,12.212,0,0,0,2.792,8.362A9.6,9.6,0,0,0,9.675,22.04a9.918,9.918,0,0,0,5.647-1.584,6.788,6.788,0,0,0,2.853-4.2l.088-.4h.971V30.81H21.9V-.107H19.281ZM10.505,1.822a9.166,9.166,0,0,1,6.342,2.184A7.7,7.7,0,0,1,19.235,9.86v1.107a8.756,8.756,0,0,1-2.4,6.381,8.849,8.849,0,0,1-6.42,2.394,8.681,8.681,0,0,1-3.348-.634,7.294,7.294,0,0,1-2.616-1.835,9.635,9.635,0,0,1-2.257-6.628,10.37,10.37,0,0,1,.608-3.6,8.071,8.071,0,0,1,1.72-2.8,7.578,7.578,0,0,1,2.645-1.8A8.8,8.8,0,0,1,10.505,1.822Zm-.092,16.894a7.851,7.851,0,0,0,5.7-2.1,7.758,7.758,0,0,0,2.1-5.655V9.86a6.7,6.7,0,0,0-2.056-5.1,8.167,8.167,0,0,0-5.648-1.913A7.776,7.776,0,0,0,7.553,3.4a6.56,6.56,0,0,0-2.29,1.556A7.053,7.053,0,0,0,3.762,7.4a9.351,9.351,0,0,0-.545,3.244,8.637,8.637,0,0,0,1.99,5.938A6.813,6.813,0,0,0,10.413,18.717Z" transform="translate(1.5 1.5)" fill="#184d47"/>
        </g>
      </g>
      <g id="Group_1476" data-name="Group 1476" transform="translate(127.461 9.392)" clip-path="url(#clip-path-10)">
        <g id="Group_1475" data-name="Group 1475" transform="translate(-127.461 -9.392)" clip-path="url(#clip-path-2)">
          <path id="Path_9670" data-name="Path 9670" d="M372.015-177.513h22.008v24.224H372.015Z" transform="translate(-244.895 186.564)" fill="#174d46"/>
        </g>
      </g>
      <g id="Group_1478" data-name="Group 1478" clip-path="url(#clip-path-2)">
        <g id="Group_1477" data-name="Group 1477" transform="translate(126.948 8.88)">
          <path id="Path_9673" data-name="Path 9673" d="M7.459,23.066A10.14,10.14,0,0,1,.973,21.1,6.8,6.8,0,0,1-1.5,15.63,5.766,5.766,0,0,1,.578,11.022C2.109,9.758,4.393,9.116,7.367,9.116h8.766V7.966a6.459,6.459,0,0,0-.4-2.375,3.909,3.909,0,0,0-1.154-1.61A5.242,5.242,0,0,0,12.6,3a11.192,11.192,0,0,0-2.92-.339A7.889,7.889,0,0,0,5.141,3.741,3.305,3.305,0,0,0,4.054,5a4.126,4.126,0,0,0-.375,1.81,6.161,6.161,0,0,0,.042.767l.072.576H-.648l-.063-.44a12.7,12.7,0,0,1-.1-1.458A6.787,6.787,0,0,1,2.118.523,13.149,13.149,0,0,1,9.767-1.5a15.676,15.676,0,0,1,4.627.635,9.605,9.605,0,0,1,3.5,1.9,8.156,8.156,0,0,1,2.2,3.1A10.98,10.98,0,0,1,20.85,8.29V22.7H16.11l.024-.556c.026-.6.069-1.578.109-2.723a6.913,6.913,0,0,1-2,2A12.232,12.232,0,0,1,7.459,23.066ZM7.367,10.142a13.522,13.522,0,0,0-3.733.463,6.647,6.647,0,0,0-2.4,1.208,4.546,4.546,0,0,0-1.3,1.719,5.281,5.281,0,0,0-.407,2.1,6.411,6.411,0,0,0,.547,2.68A5.506,5.506,0,0,0,1.621,20.3a9.144,9.144,0,0,0,5.838,1.737,11.253,11.253,0,0,0,6.214-1.485,5.921,5.921,0,0,0,1.693-1.674,6.584,6.584,0,0,0,.917-2.211l.09-.4h.98l-.011.523c-.039,1.889-.113,3.736-.162,4.878h2.645V8.29a9.965,9.965,0,0,0-.673-3.768A7.14,7.14,0,0,0,17.225,1.8,8.59,8.59,0,0,0,14.091.114,14.659,14.659,0,0,0,9.767-.475,12.156,12.156,0,0,0,2.715,1.356a5.918,5.918,0,0,0-1.852,2.1A6.052,6.052,0,0,0,.217,6.259c0,.249.018.585.041.873h2.4c0-.139,0-.25,0-.318a5.137,5.137,0,0,1,.478-2.257A4.319,4.319,0,0,1,4.549,2.9,8.849,8.849,0,0,1,9.675,1.638a12.2,12.2,0,0,1,3.191.375,6.253,6.253,0,0,1,2.37,1.18,4.976,4.976,0,0,1,1.452,2.021,7.469,7.469,0,0,1,.47,2.753v2.175ZM8.2,19.927a8.12,8.12,0,0,1-4.5-1.114,3.957,3.957,0,0,1-1.287-1.371,3.706,3.706,0,0,1-.452-1.812A3.835,3.835,0,0,1,2.3,13.956a3.054,3.054,0,0,1,1.1-1.247,7.844,7.844,0,0,1,4.293-.916h9.467v.836a7.1,7.1,0,0,1-.641,3.029,6.475,6.475,0,0,1-1.836,2.32A10.236,10.236,0,0,1,8.2,19.927ZM7.69,12.818a6.94,6.94,0,0,0-3.727.746,2.251,2.251,0,0,0-.977,2.066,2.685,2.685,0,0,0,1.285,2.332A7.131,7.131,0,0,0,8.2,18.9a9.239,9.239,0,0,0,5.842-1.722,5.591,5.591,0,0,0,2.091-4.362Z" transform="translate(1.5 1.5)" fill="#184d47"/>
        </g>
      </g>
      <g id="Group_1480" data-name="Group 1480" transform="translate(155.016 9.392)" clip-path="url(#clip-path-13)">
        <g id="Group_1479" data-name="Group 1479" transform="translate(-155.016 -9.392)" clip-path="url(#clip-path-2)">
          <path id="Path_9675" data-name="Path 9675" d="M452.655-177.513h20.486v23.854H452.655Z" transform="translate(-297.981 186.564)" fill="#174d46"/>
        </g>
      </g>
      <g id="Group_1482" data-name="Group 1482" clip-path="url(#clip-path-2)">
        <g id="Group_1481" data-name="Group 1481" transform="translate(154.504 8.88)">
          <path id="Path_9678" data-name="Path 9678" d="M10.968-1.5a9.3,9.3,0,0,1,3.584.659A6.994,6.994,0,0,1,17.2,1.073a8.273,8.273,0,0,1,1.6,2.988,13.186,13.186,0,0,1,.528,3.859,40.964,40.964,0,0,1-.234,4.119l-.051.456H14.628l.077-.58a25.123,25.123,0,0,0,.18-3.209A10.683,10.683,0,0,0,14.6,6.067a4.736,4.736,0,0,0-.851-1.8A4.384,4.384,0,0,0,10.09,2.848,6.232,6.232,0,0,0,7.2,3.514,6.145,6.145,0,0,0,5.063,5.379,8.984,8.984,0,0,0,3.7,8.3a14.133,14.133,0,0,0-.48,3.779V22.7H-1.5V-1.131H3.225l-.06,4.3A8.125,8.125,0,0,1,10.968-1.5Zm7.153,12.97c.092-.958.181-2.316.181-3.55a12.169,12.169,0,0,0-.483-3.558,7.257,7.257,0,0,0-1.4-2.621A5.978,5.978,0,0,0,14.158.105a8.283,8.283,0,0,0-3.19-.58,8.722,8.722,0,0,0-3.035.5A6.544,6.544,0,0,0,5.727,1.383,7.9,7.9,0,0,0,4.17,3.459,12.612,12.612,0,0,0,3.154,6.114l-.1.38h-.96l.093-6.6H-.475V21.671H2.192v-9.6A15.154,15.154,0,0,1,2.71,8.02,10,10,0,0,1,4.236,4.773a7.16,7.16,0,0,1,2.5-2.17,7.246,7.246,0,0,1,3.355-.78,7.008,7.008,0,0,1,2.6.441,4.492,4.492,0,0,1,1.859,1.36,7.916,7.916,0,0,1,1.365,5.082c0,1.217-.065,2.161-.124,2.764Z" transform="translate(1.5 1.5)" fill="#184d47"/>
        </g>
      </g>
      <g id="Group_1483" data-name="Group 1483" transform="translate(28.406 0.572)" clip-path="url(#clip-path-16)">
        <path id="Path_9680" data-name="Path 9680" d="M82.129-203.326h4.377v32.671H82.129Z" transform="translate(-82.471 202.984)" fill="#174d46"/>
      </g>
      <g id="Group_1485" data-name="Group 1485" clip-path="url(#clip-path-2)">
        <g id="Group_1484" data-name="Group 1484" transform="translate(27.893 0.059)">
          <path id="Path_9682" data-name="Path 9682" d="M-1.5-1.5H3.219V31.513H-1.5ZM2.193-.475H-.475V30.488H2.193Z" transform="translate(1.5 1.5)" fill="#184d47"/>
        </g>
      </g>
      <g id="Group_1487" data-name="Group 1487" transform="translate(0.619 23.631)" clip-path="url(#clip-path-18)">
        <g id="Group_1486" data-name="Group 1486" transform="translate(-0.619 -23.631)" clip-path="url(#clip-path-2)">
          <path id="Path_9684" data-name="Path 9684" d="M.812-135.843H17.1v9.985H.812Z" transform="translate(-0.534 159.132)" fill="#174d46"/>
        </g>
      </g>
      <g id="Group_1489" data-name="Group 1489" clip-path="url(#clip-path-2)">
        <g id="Group_1488" data-name="Group 1488" transform="translate(0.107 23.119)">
          <path id="Path_9687" data-name="Path 9687" d="M7.462,8.827A10.139,10.139,0,0,1,.974,6.857,6.8,6.8,0,0,1-1.5,1.385,5.4,5.4,0,0,1-.853-1.226L-.708-1.5H5.059L3.846-.579a2.264,2.264,0,0,0-.863,1.965A2.686,2.686,0,0,0,4.27,3.718a7.131,7.131,0,0,0,3.924.94,11.364,11.364,0,0,0,3.533-.517,7.041,7.041,0,0,0,2.546-1.425l.855-.77V6.465l-.178.153C13.247,8.084,10.728,8.827,7.462,8.827ZM-.08-.475a4.318,4.318,0,0,0-.395,1.86A6.415,6.415,0,0,0,.072,4.066a5.513,5.513,0,0,0,1.55,2A9.143,9.143,0,0,0,7.462,7.8c2.9,0,5.13-.61,6.641-1.813V4.138a8.578,8.578,0,0,1-2.057.977,12.383,12.383,0,0,1-3.852.568A8.121,8.121,0,0,1,3.7,4.57,3.96,3.96,0,0,1,2.411,3.2a3.705,3.705,0,0,1-.453-1.814,3.864,3.864,0,0,1,.3-1.577,3.024,3.024,0,0,1,.144-.283Z" transform="translate(1.5 1.5)" fill="#184d47"/>
        </g>
      </g>
      <g id="Group_1491" data-name="Group 1491" transform="translate(5.032 20.578)" clip-path="url(#clip-path-21)">
        <g id="Group_1490" data-name="Group 1490" transform="translate(-5.032 -20.578)" clip-path="url(#clip-path-2)">
          <path id="Path_9689" data-name="Path 9689" d="M13.727-144.779h12v3.808h-12Z" transform="translate(-9.036 165.015)" fill="#174d46"/>
        </g>
      </g>
      <g id="Group_1493" data-name="Group 1493" clip-path="url(#clip-path-2)">
        <g id="Group_1492" data-name="Group 1492" transform="translate(3.734 20.065)">
          <path id="Path_9692" data-name="Path 9692" d="M1.564-1.5H9.333V2.206H4.675c-1.408,0-2.921-.008-4.449-.067-.079,0-.158,0-.235,0a6.07,6.07,0,0,0-2.308.478l-1.482.57.869-1.329A11.8,11.8,0,0,1-1.214-.05,4.568,4.568,0,0,1,1.564-1.5ZM8.308-.475H1.564c-.29,0-.948.154-2.092,1.186-.178.161-.346.323-.5.481a6.4,6.4,0,0,1,1.02-.08c.09,0,.182,0,.274.005,1.511.058,3.012.066,4.41.066H8.308Z" transform="translate(3.8 1.5)" fill="#184d47"/>
        </g>
      </g>
      <g id="Group_1495" data-name="Group 1495" transform="translate(1.306 9.386)" clip-path="url(#clip-path-24)">
        <g id="Group_1494" data-name="Group 1494" transform="translate(-1.306 -9.386)" clip-path="url(#clip-path-2)">
          <path id="Path_9694" data-name="Path 9694" d="M2.823-177.531H24.146v23.858H2.823Z" transform="translate(-1.858 186.576)" fill="#174d46"/>
        </g>
      </g>
      <g id="Group_1497" data-name="Group 1497" clip-path="url(#clip-path-2)">
        <g id="Group_1496" data-name="Group 1496" transform="translate(0.794 8.874)">
          <path id="Path_9697" data-name="Path 9697" d="M20.165,22.7H15.456V22c.021-.508.012-1.124,0-1.837-.012-.828-.026-1.767,0-2.89V9.023h-.011V7.969a6.448,6.448,0,0,0-.4-2.373,3.909,3.909,0,0,0-1.155-1.609,5.248,5.248,0,0,0-1.987-.979,11.2,11.2,0,0,0-2.922-.339A7.9,7.9,0,0,0,4.447,3.745,3.3,3.3,0,0,0,3.359,5.008,4.132,4.132,0,0,0,2.984,6.82c0,.03,0,.03,0,.109,0,.13,0,.464.011,1.442l0,.376-.358.115A5.344,5.344,0,0,0-.468,11.138l-.879,1.48-.074-1.72c-.046-1.069-.079-4.3-.079-4.642A6.785,6.785,0,0,1,1.425.524,13.143,13.143,0,0,1,9.073-1.5,15.682,15.682,0,0,1,13.7-.865a9.619,9.619,0,0,1,3.508,1.9,8.164,8.164,0,0,1,2.206,3.1,10.978,10.978,0,0,1,.75,4.158Zm-3.674-1.025H19.14V8.3a9.963,9.963,0,0,0-.674-3.771,7.148,7.148,0,0,0-1.93-2.719A8.6,8.6,0,0,0,13.4.115,14.665,14.665,0,0,0,9.073-.475,12.149,12.149,0,0,0,2.022,1.357,5.92,5.92,0,0,0,.17,3.454a6.046,6.046,0,0,0-.645,2.8c0,.3.017,1.911.041,3.208A5.94,5.94,0,0,1,.1,9.009a7.266,7.266,0,0,1,1.865-1c0-.7-.007-.961-.008-1.073,0-.086,0-.086,0-.117a5.143,5.143,0,0,1,.478-2.259A4.316,4.316,0,0,1,3.856,2.908,8.86,8.86,0,0,1,8.983,1.643a12.216,12.216,0,0,1,3.193.375A6.259,6.259,0,0,1,14.547,3.2,4.976,4.976,0,0,1,16,5.218a7.458,7.458,0,0,1,.47,2.752V8h.011v9.289c-.024,1.107-.01,2.038,0,2.859C16.491,20.715,16.5,21.224,16.491,21.675Z" transform="translate(1.5 1.5)" fill="#184d47"/>
        </g>
      </g>
      <g id="Group_1498" data-name="Group 1498" transform="translate(37.639 27.668)" clip-path="url(#clip-path-27)">
        <path id="Path_9699" data-name="Path 9699" d="M109.151-124.03h4.377v5.582h-4.377Z" transform="translate(-109.493 123.688)" fill="#d05b45"/>
      </g>
      <g id="Group_1500" data-name="Group 1500" clip-path="url(#clip-path-2)">
        <g id="Group_1499" data-name="Group 1499" transform="translate(37.127 27.155)">
          <path id="Path_9701" data-name="Path 9701" d="M0,0H3.693V4.9H0Z" transform="translate(0.513 0.513)" fill="url(#linear-gradient)"/>
          <path id="Path_9701_-_Outline" data-name="Path 9701 - Outline" d="M-1.5-1.5H3.219V4.424H-1.5ZM2.193-.475H-.475V3.4H2.193Z" transform="translate(1.5 1.5)" fill="#fb5568"/>
        </g>
      </g>
      <g id="Group_1513" data-name="Group 1513" transform="translate(117.235 60.984)" clip-path="url(#clip-path-31)">
        <g id="Group_1512" data-name="Group 1512" transform="translate(-343.088 -60.984)" clip-path="url(#clip-path-32)">
          <path id="Path_9717" data-name="Path 9717" d="M342.088-26.531h2v3.879h-2Z" transform="translate(0 87.173)" fill="#174d46"/>
        </g>
      </g>
      <g id="Group_1517" data-name="Group 1517" transform="translate(117.235 60.816)" clip-path="url(#clip-path-33)">
        <g id="Group_1516" data-name="Group 1516" transform="translate(-343.088 -60.816)" clip-path="url(#clip-path-32)">
          <path id="Path_9722" data-name="Path 9722" d="M342.088-27.023h2v3.879h-2Z" transform="translate(0 87.497)" fill="#174d46"/>
        </g>
      </g>
    </g>
    <line id="Line_7" data-name="Line 7" y2="48" transform="translate(896.076 95.727)" fill="none" stroke="#99b2af" stroke-width="1" opacity="0.569"/>
  </g>
</svg>
