<?xml version="1.0" encoding="UTF-8"?>
<!DOCTYPE svg PUBLIC "-//W3C//DTD SVG 1.1//EN" "http://www.w3.org/Graphics/SVG/1.1/DTD/svg11.dtd">
<svg xmlns="http://www.w3.org/2000/svg" version="1.1" width="177px" height="77px" style="shape-rendering:geometricPrecision; text-rendering:geometricPrecision; image-rendering:optimizeQuality; fill-rule:evenodd; clip-rule:evenodd" xmlns:xlink="http://www.w3.org/1999/xlink">
<g><path style="opacity:0.883" fill="#174c45" d="M 28.5,7.5 C 30.5,7.5 32.5,7.5 34.5,7.5C 34.5,18.8333 34.5,30.1667 34.5,41.5C 32.5,41.5 30.5,41.5 28.5,41.5C 28.5,30.1667 28.5,18.8333 28.5,7.5 Z"/></g>
<g><path style="opacity:0.869" fill="#174d45" d="M 6.5,16.5 C 10.5138,16.3345 14.5138,16.5012 18.5,17C 21.9526,18.7282 23.7859,21.5615 24,25.5C 24.4994,30.8229 24.666,36.1563 24.5,41.5C 21.9208,41.9167 19.7542,41.25 18,39.5C 14.0669,41.4777 9.90024,41.9777 5.5,41C 2.36493,39.7343 0.698261,37.401 0.5,34C 1.1645,29.8555 1.6645,25.6888 2,21.5C 3.02496,19.313 4.52496,17.6464 6.5,16.5 Z M 8.5,21.5 C 11.2492,21.2739 13.9159,21.6072 16.5,22.5C 17.9501,23.8498 18.6168,25.5165 18.5,27.5C 14.8183,27.3347 11.1516,27.5014 7.5,28C 6.45666,29.9756 5.12333,30.4756 3.5,29.5C 5.8971,27.3379 7.56376,24.6712 8.5,21.5 Z M 7.5,31.5 C 11.226,31.1774 14.8927,31.5108 18.5,32.5C 15.5504,36.142 11.8837,37.142 7.5,35.5C 6.37437,34.1916 6.37437,32.8583 7.5,31.5 Z"/></g>
<g><path style="opacity:0.84" fill="#174c46" d="M 51.5,26.5 C 49.5,26.5 47.5,26.5 45.5,26.5C 45.3959,18.7758 49.2293,15.4425 57,16.5C 62.6596,15.824 66.3262,18.1574 68,23.5C 68.4995,29.4908 68.6662,35.4908 68.5,41.5C 65.9208,41.9167 63.7542,41.25 62,39.5C 57.1993,42.1364 52.366,42.1364 47.5,39.5C 45.534,36.451 45.034,33.1177 46,29.5C 47.8761,28.3913 49.7095,27.3913 51.5,26.5 Z M 51.5,26.5 C 51.2796,22.6807 53.1129,21.014 57,21.5C 60.6028,21.2709 62.4362,22.9376 62.5,26.5C 58.8333,26.5 55.1667,26.5 51.5,26.5 Z M 51.5,31.5 C 55.226,31.1774 58.8927,31.5108 62.5,32.5C 59.2425,36.7927 55.4091,37.4594 51,34.5C 50.5304,33.4232 50.6971,32.4232 51.5,31.5 Z"/></g>
<g><path style="opacity:0.871" fill="#174c46" d="M 77.5,26.5 C 75.8333,26.5 74.1667,26.5 72.5,26.5C 71.4582,21.8672 73.1249,18.7006 77.5,17C 82.2867,16.1215 86.9534,16.4548 91.5,18C 92.7014,18.9025 93.5348,20.0692 94,21.5C 94.4996,28.1583 94.6663,34.825 94.5,41.5C 92.2341,41.8588 90.4007,41.1922 89,39.5C 84.2461,41.8799 79.4127,42.0465 74.5,40C 69.9658,34.1635 70.9658,29.6635 77.5,26.5 Z M 77.5,26.5 C 77.6209,22.9111 79.4543,21.2444 83,21.5C 86.2149,21.1884 88.3816,22.5218 89.5,25.5C 85.5546,26.4909 81.5546,26.8242 77.5,26.5 Z M 78.5,31.5 C 82.1817,31.3347 85.8484,31.5014 89.5,32C 86.6981,36.0754 83.0314,37.242 78.5,35.5C 77.3744,34.1916 77.3744,32.8583 78.5,31.5 Z"/></g>
<g><path style="opacity:0.891" fill="#174c46" d="M 105.5,16.5 C 111.587,17.0508 117.587,17.0508 123.5,16.5C 123.5,27.8333 123.5,39.1667 123.5,50.5C 121.5,50.5 119.5,50.5 117.5,50.5C 117.665,46.8183 117.499,43.1516 117,39.5C 109.409,43.3662 103.409,41.6995 99,34.5C 96.7143,26.6616 98.881,20.6616 105.5,16.5 Z M 108.5,21.5 C 117.086,21.4326 119.753,25.4326 116.5,33.5C 110.049,38.2781 105.715,36.7781 103.5,29C 103.818,25.5297 105.484,23.0297 108.5,21.5 Z"/></g>
<g><path style="opacity:0.861" fill="#174c46" d="M 133.5,26.5 C 131.833,26.5 130.167,26.5 128.5,26.5C 127.458,21.8672 129.125,18.7006 133.5,17C 138.36,16.0321 143.026,16.5321 147.5,18.5C 148.584,19.6651 149.417,20.9984 150,22.5C 150.5,28.8246 150.666,35.1579 150.5,41.5C 147.921,41.9167 145.754,41.25 144,39.5C 138.155,42.6288 132.822,41.9621 128,37.5C 126.185,31.855 128.018,28.1883 133.5,26.5 Z M 133.5,26.5 C 133.564,22.9376 135.397,21.2709 139,21.5C 142.603,21.2709 144.436,22.9376 144.5,26.5C 140.833,26.5 137.167,26.5 133.5,26.5 Z M 134.5,31.5 C 137.898,31.1796 141.232,31.513 144.5,32.5C 141.021,37.0954 137.021,37.5954 132.5,34C 133.381,33.2917 134.047,32.4584 134.5,31.5 Z"/></g>
<g><path style="opacity:0.889" fill="#174c46" d="M 176.5,21.5 C 176.5,24.8333 176.5,28.1667 176.5,31.5C 174.833,31.5 173.167,31.5 171.5,31.5C 171.789,28.3508 171.289,25.3508 170,22.5C 165.179,20.6239 162.179,22.2906 161,27.5C 160.501,32.1548 160.334,36.8215 160.5,41.5C 158.5,41.5 156.5,41.5 154.5,41.5C 154.5,33.1667 154.5,24.8333 154.5,16.5C 157.079,16.0833 159.246,16.75 161,18.5C 167.23,15.0501 172.397,16.0501 176.5,21.5 Z"/></g>
<g><path style="opacity:0.381" fill="#fa5666" d="M 37.5,34.5 C 39.5,34.5 41.5,34.5 43.5,34.5C 43.5,36.8333 43.5,39.1667 43.5,41.5C 41.5,41.5 39.5,41.5 37.5,41.5C 37.5,39.1667 37.5,36.8333 37.5,34.5 Z"/></g>
</svg>
