<svg xmlns="http://www.w3.org/2000/svg" width="375" height="410" viewBox="0 0 375 410">
  <g id="undraw_note_list_re_r4u9" transform="translate(-63.142 0)">
    <g id="new-construction-3" transform="translate(282.438 259.165)">
      <rect id="Rectangle_389" data-name="Rectangle 389" width="4.866" height="90.017" rx="0.5" transform="translate(111.913 32.845)" fill="#ff725f" opacity="0.47"/>
      <rect id="Rectangle_390" data-name="Rectangle 390" width="4.866" height="77.852" rx="0.5" transform="translate(131.376 45.009)" fill="#ff725f" opacity="0.47"/>
      <path id="Path_796" data-name="Path 796" d="M152.474,24.613,84.353.284a4.866,4.866,0,0,0-6.5,4.579V43.789h9.732V11.767l58.389,20.855V141.1H97.315V58.386A4.866,4.866,0,0,0,92.45,53.52H29.195a4.866,4.866,0,0,0-4.866,4.866V141.1H14.6V77.849H4.866A4.866,4.866,0,0,0,0,82.715V145.97a4.866,4.866,0,0,0,4.866,4.866H150.839a4.866,4.866,0,0,0,4.866-4.866V29.191A4.866,4.866,0,0,0,152.474,24.613ZM70.554,126.507H51.091a2.433,2.433,0,0,1-2.433-2.433v-4.866a2.433,2.433,0,0,1,2.433-2.433H70.554a2.433,2.433,0,0,1,2.433,2.433v4.866A2.433,2.433,0,0,1,70.554,126.507Zm0-19.463H51.091a2.433,2.433,0,0,1-2.433-2.433V99.745a2.433,2.433,0,0,1,2.433-2.433H70.554a2.433,2.433,0,0,1,2.433,2.433v4.866A2.433,2.433,0,0,1,70.554,107.044Zm0-19.463H51.091a2.433,2.433,0,0,1-2.433-2.433V80.282a2.433,2.433,0,0,1,2.433-2.433H70.554a2.433,2.433,0,0,1,2.433,2.433v4.866A2.433,2.433,0,0,1,70.554,87.58Z" transform="translate(0 -0.001)" fill="#e2e6e5"/>
    </g>
    <path id="Path_10370" data-name="Path 10370" d="M717.68,170.906l-.026,0V119.848A20.851,20.851,0,0,0,696.795,99H536.818a20.851,20.851,0,0,0-20.859,20.844v26.176a1.69,1.69,0,0,0-1.654,1.687v12.965a1.689,1.689,0,0,0,1.654,1.687v13.583h-.085a1.691,1.691,0,0,0-1.692,1.691v25.072a1.691,1.691,0,0,0,1.692,1.691h.085v9.958h-.026a1.691,1.691,0,0,0-1.692,1.691v25.317a1.691,1.691,0,0,0,1.692,1.691h.026V487.777a20.852,20.852,0,0,0,20.859,20.844H696.795a20.852,20.852,0,0,0,20.859-20.844V220.557l.026,0a3.012,3.012,0,0,0,3.013-3.011V173.917a3.012,3.012,0,0,0-3.013-3.011Z" transform="translate(-402.716 -99.004)" fill="#f7f7f7"/>
    <path id="Path_10371" data-name="Path 10371" d="M715.318,133.281v356.24a16.014,16.014,0,0,1-16.02,16H554.552a16.014,16.014,0,0,1-16.02-16V133.281a16.014,16.014,0,0,1,16.02-16.007h21.66v2.809A13.192,13.192,0,0,0,589.4,133.264h73.641a13.186,13.186,0,0,0,13.162-13.181V117.3H699.3a16.014,16.014,0,0,1,16.02,15.978Z" transform="translate(-413.005 -106.596)" fill="#fff"/>
    <path id="Path_10381" data-name="Path 10381" d="M624.278,280.854H595.929a6.429,6.429,0,0,1,0-12.858h28.349a6.429,6.429,0,1,1,0,12.858Z" transform="translate(-434.164 -169.303)" fill="#ff7663" opacity="0.46"/>
    <path id="Path_10382" data-name="Path 10382" d="M711.067,309.01H593.007a3.507,3.507,0,0,1,0-7.013h118.06a3.507,3.507,0,1,1,0,7.013Z" transform="translate(-434.214 -183.445)" fill="#e6e6e6"/>
    <path id="Path_10383" data-name="Path 10383" d="M636.373,333.01H593.007a3.507,3.507,0,0,1,0-7.014h43.367a3.507,3.507,0,0,1,0,7.014Z" transform="translate(-434.168 -193.429)" fill="#e6e6e6"/>
    <path id="Path_10384" data-name="Path 10384" d="M624.278,546.854H595.929a6.429,6.429,0,0,1,0-12.858h28.349a6.429,6.429,0,1,1,0,12.858Z" transform="translate(-434.164 -279.956)" fill="#ff7663" opacity="0.46"/>
    <path id="Path_10385" data-name="Path 10385" d="M711.067,575.01H593.007a3.507,3.507,0,0,1,0-7.014h118.06a3.507,3.507,0,1,1,0,7.014Z" transform="translate(-434.214 -294.097)" fill="#e6e6e6"/>
    <path id="Path_10386" data-name="Path 10386" d="M636.373,599.01H593.007a3.507,3.507,0,0,1,0-7.013h43.367a3.507,3.507,0,0,1,0,7.013Z" transform="translate(-434.168 -304.08)" fill="#e6e6e6"/>
    <path id="Path_10387" data-name="Path 10387" d="M624.278,669.854H595.929a6.429,6.429,0,0,1,0-12.858h28.349a6.429,6.429,0,1,1,0,12.858Z" transform="translate(-434.164 -331.123)" fill="#ff7663" opacity="0.46"/>
    <path id="Path_10388" data-name="Path 10388" d="M711.067,698.009H593.007a3.507,3.507,0,0,1,0-7.013h118.06a3.507,3.507,0,1,1,0,7.013Z" transform="translate(-434.214 -345.305)" fill="#e6e6e6"/>
    <path id="Path_10389" data-name="Path 10389" d="M636.373,722.01H593.007a3.507,3.507,0,0,1,0-7.014h43.367a3.507,3.507,0,0,1,0,7.014Z" transform="translate(-434.168 -355.278)" fill="#e6e6e6"/>
    <path id="Path_10390" data-name="Path 10390" d="M662.067,442.8h-225.6a4.974,4.974,0,0,1-4.968-4.968V376.464a4.973,4.973,0,0,1,4.968-4.968h225.6a4.974,4.974,0,0,1,4.968,4.968v61.368A4.974,4.974,0,0,1,662.067,442.8Z" transform="translate(-368.358 -212.379)" fill="#ff7663" opacity="0.46"/>
    <path id="Path_10397" data-name="Path 10397" d="M546.2,410.354h-39.19c-2.489,0-4.514-2.884-4.514-6.429s2.025-6.429,4.514-6.429H546.2c2.489,0,4.514,2.884,4.514,6.429S548.692,410.354,546.2,410.354Z" transform="translate(-397.862 -223.173)" fill="#fff"/>
    <path id="Path_10398" data-name="Path 10398" d="M651.536,438.51H506.007a3.507,3.507,0,1,1,0-7.013H651.536a3.507,3.507,0,1,1,0,7.013Z" transform="translate(-397.862 -237.315)" fill="#e6e6e6"/>
    <path id="Path_10399" data-name="Path 10399" d="M576.843,462.51H506.007a3.507,3.507,0,1,1,0-7.013h70.836a3.507,3.507,0,0,1,0,7.013Z" transform="translate(-397.862 -247.299)" fill="#e6e6e6"/>
  </g>
</svg>
