<svg id="undraw_online_calendar_re_wk3t" xmlns="http://www.w3.org/2000/svg"
                                        width="520" height="361" viewBox="0 0 520 361">
                                        <rect id="Rectangle_744" data-name="Rectangle 744" width="520" height="322.905"
                                            transform="translate(0 38.095)" fill="#e2e6e5" />
                                        <rect id="Rectangle_745" data-name="Rectangle 745" width="95.238"
                                            height="61.905" transform="translate(34.87 100.173)" fill="#f7f7f7" />
                                        <rect id="Rectangle_746" data-name="Rectangle 746" width="95.238"
                                            height="61.905" transform="translate(153.21 100.173)" fill="#f7f7f7" />
                                        <rect id="Rectangle_747" data-name="Rectangle 747" width="95.238"
                                            height="61.905" transform="translate(271.551 100.173)" fill="#f7f7f7" />
                                        <rect id="Rectangle_748" data-name="Rectangle 748" width="95.238"
                                            height="61.905" transform="translate(389.891 100.173)" fill="#f7f7f7" />
                                        <rect id="Rectangle_749" data-name="Rectangle 749" width="95.238"
                                            height="61.905" transform="translate(34.87 187.528)" fill="#f7f7f7" />
                                        <rect id="Rectangle_750" data-name="Rectangle 750" width="95.238"
                                            height="61.905" transform="translate(153.21 187.528)" fill="#f7f7f7" />
                                        <rect id="Rectangle_751" data-name="Rectangle 751" width="95.238"
                                            height="61.905" transform="translate(271.551 187.528)" fill="#f7f7f7" />
                                        <rect id="Rectangle_752" data-name="Rectangle 752" width="95.238"
                                            height="61.905" transform="translate(389.891 187.528)" fill="#f7f7f7" />
                                        <rect id="Rectangle_753" data-name="Rectangle 753" width="95.238"
                                            height="61.905" transform="translate(34.87 274.809)" fill="#f7f7f7" />
                                        <rect id="Rectangle_754" data-name="Rectangle 754" width="95.238"
                                            height="61.905" transform="translate(153.21 274.809)" fill="#f7f7f7" />
                                        <rect id="Rectangle_755" data-name="Rectangle 755" width="95.238"
                                            height="61.905" transform="translate(271.551 274.809)" fill="#f7f7f7" />
                                        <rect id="Rectangle_756" data-name="Rectangle 756" width="95.238"
                                            height="61.905" transform="translate(389.891 274.809)" fill="#f7f7f7" />
                                        <circle id="Ellipse_1216" data-name="Ellipse 1216" cx="14.286" cy="14.286"
                                            r="14.286" transform="translate(121.905 47.619)" fill="#fff" />
                                        <circle id="Ellipse_1217" data-name="Ellipse 1217" cx="14.286" cy="14.286"
                                            r="14.286" transform="translate(358.096 47.619)" fill="#fff" />
                                        <rect id="Rectangle_757" data-name="Rectangle 757" width="11.429"
                                            height="65.714" transform="translate(130.477)" fill="#e2e6e5" />
                                        <rect id="Rectangle_758" data-name="Rectangle 758" width="11.429"
                                            height="65.714" transform="translate(366.667)" fill="#e2e6e5" />
                                        <path id="Path_10514" data-name="Path 10514"
                                            d="M650.688,285.112a21.476,21.476,0,1,1-3.328-11.5A21.476,21.476,0,0,1,650.688,285.112Z"
                                            transform="translate(-191.64 -153.996)" fill="#fbb9b0" />
                                        <path id="Path_10515" data-name="Path 10515"
                                            d="M647.936,274.012l-21.2,21.2c-1.332-2.063-8.756-11.649-8.756-11.649a30.027,30.027,0,0,1,3.038-2.682l6.156,8.207,18.279-18.279a21.442,21.442,0,0,1,2.483,3.207Z"
                                            transform="translate(-192.217 -154.401)" fill="#fff" />
                                        <path id="Path_10516" data-name="Path 10516"
                                            d="M399.9,377.954a21.476,21.476,0,1,1-3.328-11.5,21.476,21.476,0,0,1,3.328,11.5Z"
                                            transform="translate(-177.53 -159.468)" fill="#fbb9b0" />
                                        <path id="Path_10517" data-name="Path 10517"
                                            d="M397.145,366.855l-21.2,21.2c-1.332-2.063-8.756-11.649-8.756-11.649a30.032,30.032,0,0,1,3.039-2.682l6.156,8.207,18.279-18.279A21.445,21.445,0,0,1,397.145,366.855Z"
                                            transform="translate(-178.107 -159.86)" fill="#fff" />
                                        <path id="Path_10518" data-name="Path 10518"
                                            d="M274.5,377.954a21.476,21.476,0,1,1-3.328-11.5A21.476,21.476,0,0,1,274.5,377.954Z"
                                            transform="translate(-170.475 -159.468)" fill="#fbb9b0" />
                                        <path id="Path_10519" data-name="Path 10519"
                                            d="M271.749,366.855l-21.2,21.2c-1.332-2.063-8.756-11.649-8.756-11.649a30.05,30.05,0,0,1,3.039-2.682l6.156,8.207,18.279-18.279A21.444,21.444,0,0,1,271.749,366.855Z"
                                            transform="translate(-171.052 -159.86)" fill="#fff" />
                                    </svg>