<svg xmlns="http://www.w3.org/2000/svg" width="30.211" height="21.579" viewBox="0 0 30.211 21.579">
  <g id="noun_Purse_4157743" transform="translate(0 -16)">
    <g id="_98_Purse_Cash_Wallet_Leather_Wallet" data-name="98  Purse, Cash Wallet, Leather Wallet" transform="translate(0 16)">
      <path id="Path_9654" data-name="Path 9654" d="M22.5,11.395h7.553V9.237A3.237,3.237,0,0,0,26.816,6H5.237A3.237,3.237,0,0,0,2,9.237V24.343a3.237,3.237,0,0,0,3.237,3.237H26.816a3.237,3.237,0,0,0,3.237-3.237V22.185H22.5a2.158,2.158,0,0,1-2.158-2.158V13.553A2.158,2.158,0,0,1,22.5,11.395ZM13.869,23.264H6.316V21.106h7.553Zm17.264-10.79H22.5a1.079,1.079,0,0,0-1.079,1.079v6.474A1.079,1.079,0,0,0,22.5,21.106h8.632a1.079,1.079,0,0,0,1.079-1.079V13.553A1.079,1.079,0,0,0,31.132,12.474Zm-4.316,5.395A1.079,1.079,0,1,1,27.9,16.79,1.079,1.079,0,0,1,26.816,17.869Z" transform="translate(-2 -6)" fill="#ff725f"/>
      <rect id="Rectangle_699" data-name="Rectangle 699" width="11.329" height="8.812" rx="0.5" transform="translate(18.882 6.294)" fill="#ff725f"/>
      <circle id="Ellipse_1230" data-name="Ellipse 1230" cx="1.888" cy="1.888" r="1.888" transform="translate(22.658 8.812)" fill="#ff725f"/>
    </g>
  </g>
</svg>
