<svg xmlns="http://www.w3.org/2000/svg" width="29.021" height="21.269" viewBox="0 0 29.021 21.269">
  <g id="noun_services_1546238" transform="translate(-1 -13.967)">
    <g id="Group_1334" data-name="Group 1334" transform="translate(1 13.967)">
      <path id="Path_9622" data-name="Path 9622" d="M52.9,21.529l1.966,1.951a.48.48,0,0,0,.676,0L57.5,21.52l1.959-1.959a3.2,3.2,0,0,0,.032-4.549l-.026-.028-.015-.015a3.136,3.136,0,0,0-2.093-.912,3.273,3.273,0,0,0-2.17.637,3.207,3.207,0,0,0-4.264.172H50.86v.126a3.315,3.315,0,0,0,.04,4.586Z" transform="translate(-35.45 -13.967)" fill="#ff725f"/>
      <path id="Path_9623" data-name="Path 9623" d="M29.909,48.36a1.749,1.749,0,0,0-1.327-1.08,1.928,1.928,0,0,0-.824.062.529.529,0,0,0-.051.019L22.6,49.731c.006-.063.02-.141.02-.205a1.984,1.984,0,0,0-1.974-1.969H16.391c-.018,0-.039-.062-.056-.092-.076-.137-.159-.262-.247-.391a4.864,4.864,0,0,0-.6-.711,5.159,5.159,0,0,0-3.567-1.412l-5.286,0v-.569c0-.265-.061-.385-.326-.385H1.511c-.265,0-.511.12-.511.385v9.588c0,.265.246.4.511.4H6.3c.265,0,.326-.134.326-.4v-.944l9.741,3.208c.01,0,.059.006.07.009a4.061,4.061,0,0,0,3.137-.483L28.9,50.7s.014,0,.016-.006l.237-.129v0A1.982,1.982,0,0,0,29.909,48.36Zm-1.24,1.373-.225.127-9.309,5.058-.036.023a3.186,3.186,0,0,1-2.38.373L6.765,52.034c-.019-.006-.135-.011-.135-.015V45.911l5.285,0a4.162,4.162,0,0,1,3.363,1.715c.071.1.147.21.208.32.075.136.131.167.171.261l.128.239h4.861a1.034,1.034,0,0,1,1.015,1.044,1.017,1.017,0,0,1-.59.926l-.045.033a.9.9,0,0,1-.352.08s-4.859.008-6.637.008c-.3,0-.3.872,0,.872h6.606a1.965,1.965,0,0,0,.554-.045.466.466,0,0,0,.182-.033l.013.005c.018-.007.035-.011.052-.019l6.624-3.068a.847.847,0,0,1,.369-.021c.206.03.4.087.579.506A.785.785,0,0,1,28.669,49.733Z" transform="translate(-1 -35.1)" fill="#ff725f"/>
    </g>
  </g>
</svg>
