<svg id="noun_Shower_693" xmlns="http://www.w3.org/2000/svg" width="29.57" height="26.286" viewBox="0 0 29.57 26.286">
  <path id="Path_132" data-name="Path 132" d="M48.66,8.162,47.5,8.8l.569.569L49.187,8.7Z" transform="translate(-33.307 -6.102)" fill="#ff725f"/>
  <path id="Path_133" data-name="Path 133" d="M53.592,12.813l-1.039.74.59.59,1-.769Z" transform="translate(-36.86 -8.584)" fill="#ff725f"/>
  <path id="Path_134" data-name="Path 134" d="M58.221,17.025l-.876.886.552.552.881-.872Z" transform="translate(-40.239 -12.089)" fill="#ff725f"/>
  <path id="Path_135" data-name="Path 135" d="M62.74,21.269l-.757.986.59.59.721-1.013Z" transform="translate(-43.508 -15.098)" fill="#ff725f"/>
  <path id="Path_136" data-name="Path 136" d="M67.766,26.042l-.647,1.078.592.592.616-1.1Z" transform="translate(-47.126 -18.481)" fill="#ff725f"/>
  <path id="Path_137" data-name="Path 137" d="M40.723,12.405l-1.24.684.631.63,1.2-.722Z" transform="translate(-27.675 -8.312)" fill="#ff725f"/>
  <path id="Path_138" data-name="Path 138" d="M46.406,17.745l-1.124.8.647.647,1.09-.833Z" transform="translate(-31.747 -12.601)" fill="#ff725f"/>
  <path id="Path_139" data-name="Path 139" d="M52.107,22.951l-.957.967.539.539.967-.957Z" transform="translate(-35.885 -16.295)" fill="#ff725f"/>
  <path id="Path_140" data-name="Path 140" d="M57.426,27.9l-.833,1.091.646.646.8-1.124Z" transform="translate(-39.71 -19.798)" fill="#ff725f"/>
  <path id="Path_141" data-name="Path 141" d="M63.177,33.325l-.722,1.2.642.642.692-1.232Z" transform="translate(-43.837 -23.639)" fill="#ff725f"/>
  <path id="Path_142" data-name="Path 142" d="M33.506,16.821l-.968.534.685.685.939-.563Z" transform="translate(-22.82 -11.951)" fill="#ff725f"/>
  <path id="Path_143" data-name="Path 143" d="M39.871,22.919l-.878.624.695.695.851-.651Z" transform="translate(-27.353 -16.278)" fill="#ff725f"/>
  <path id="Path_144" data-name="Path 144" d="M46.54,29.2l-.748.754.526.526.754-.748Z" transform="translate(-32.146 -20.744)" fill="#ff725f"/>
  <path id="Path_145" data-name="Path 145" d="M52.573,34.95l-.651.851.695.695.624-.878Z" transform="translate(-36.445 -24.811)" fill="#ff725f"/>
  <path id="Path_146" data-name="Path 146" d="M58.978,41.092l-.563.939.685.685.54-.962Z" transform="translate(-41.013 -29.165)" fill="#ff725f"/>
  <path id="Path_147" data-name="Path 147" d="M25.7,14.034l0-11.98,0-.02,0-.017v0A1.807,1.807,0,0,0,25.151.539a1.931,1.931,0,0,0-2.676,0c-.031.03-.06.062-.088.093l0,0-1.8,1.752c-.234-.227-.519-.5-.836-.818-.68-.672-1.016-.831-1.739-.676a4.606,4.606,0,0,0-1.592.918l2.5,2.432.4.392,2.5,2.433a4.436,4.436,0,0,0,.944-1.549c.159-.7-.006-1.032-.7-1.693-.2-.195-.392-.377-.562-.542l.622-.605,1.146-1.114.008.007a.576.576,0,0,1,.051-.057.667.667,0,0,1,.923,0,.623.623,0,0,1,.188.4V14.034H0s.178.607,1.895,7.041c.679,2.545,1.238,2.47,2.694,2.483H5.6l0,.008h0l-.474,2.721h1.5l.6-2.729H22.348l.6,2.729h1.5l-.474-2.721h0l0-.008h1.01c1.455-.013,2.015.063,2.694-2.483,1.717-6.434,1.895-7.041,1.895-7.041Z" transform="translate(0 0)" fill="#ff725f"/>
</svg>
