<svg xmlns="http://www.w3.org/2000/svg" width="20.362" height="29.852" viewBox="0 0 20.362 29.852">
  <g id="noun_internet_4346064" transform="translate(1.216 -1.322)">
    <g id="Group_1333" data-name="Group 1333" transform="translate(-1.216 1.322)">
      <g id="Group_1332" data-name="Group 1332" transform="translate(0 0)">
        <g id="Group_1331" data-name="Group 1331">
          <path id="Path_9617" data-name="Path 9617" d="M10.359,3.989a8.039,8.039,0,0,0-8.033,8.033v3.44A8.047,8.047,0,0,0,10.359,23.5h4.3a8.047,8.047,0,0,0,8.033-8.041v-3.44a8.039,8.039,0,0,0-8.033-8.033Zm0,2.3h4.3a5.7,5.7,0,0,1,5.737,5.737v3.44a5.7,5.7,0,0,1-5.737,5.745h-4.3a5.7,5.7,0,0,1-5.737-5.745v-3.44a5.7,5.7,0,0,1,5.737-5.737Z" transform="translate(-2.326 6.348)" fill="#ff725f"/>
          <path id="Path_9618" data-name="Path 9618" d="M8.429,4.119c-1.54,0-2.666,1.181-3.364,2.6a12.066,12.066,0,0,0-1.076,5.254v3.347a12.066,12.066,0,0,0,1.076,5.254c.7,1.421,1.824,2.61,3.364,2.61s2.658-1.189,3.355-2.61a12.064,12.064,0,0,0,1.085-5.254V11.974A12.064,12.064,0,0,0,11.785,6.72C11.087,5.3,9.969,4.119,8.429,4.119Zm0,2.288c.285,0,.8.318,1.3,1.322a10.071,10.071,0,0,1,.847,4.245v3.347a10.071,10.071,0,0,1-.847,4.245c-.493,1-1.011,1.322-1.3,1.322s-.812-.318-1.3-1.322a10.081,10.081,0,0,1-.839-4.245V11.974a10.081,10.081,0,0,1,.839-4.245c.493-1,1.02-1.322,1.3-1.322Z" transform="translate(1.756 6.668)" fill="#ff725f"/>
          <path id="Path_9619" data-name="Path 9619" d="M9.1,2.326a7.141,7.141,0,0,0-5.05,2.093A1.15,1.15,0,0,0,5.679,6.046a4.828,4.828,0,0,1,6.847,0,1.148,1.148,0,1,0,1.618-1.627A7.121,7.121,0,0,0,9.1,2.326Z" transform="translate(1.083 2.267)" fill="#ff725f"/>
          <path id="Path_9620" data-name="Path 9620" d="M11.527,1A11.923,11.923,0,0,0,3.087,4.5,1.148,1.148,0,1,0,4.714,6.114a9.635,9.635,0,0,1,13.625,0A1.148,1.148,0,1,0,19.958,4.5,11.9,11.9,0,0,0,11.527,1Z" transform="translate(-1.342 -0.996)" fill="#ff725f"/>
          <g id="Group_1330" data-name="Group 1330" transform="translate(0.013 18.94)">
            <path id="Path_9621" data-name="Path 9621" d="M3.478,6.249a1.148,1.148,0,1,0,0,2.3H21.526a1.148,1.148,0,1,0,0-2.3Z" transform="translate(-2.329 -6.249)" fill="#ff725f"/>
          </g>
        </g>
      </g>
    </g>
  </g>
</svg>
