<svg id="noun_compound_1607110" xmlns="http://www.w3.org/2000/svg" width="30.186" height="30.5" viewBox="0 0 30.186 30.5">
  <g id="Group_860" data-name="Group 860" transform="translate(0 0)">
    <path id="Path_9246" data-name="Path 9246" d="M37.186,27.438a3.459,3.459,0,0,1-6.918,0c0-.072,0-.145.006-.214v0c0-.044.007-.091.013-.138s.009-.075.016-.113c.006-.063.016-.123.028-.186s.028-.129.044-.195L25.5,24.348a1.564,1.564,0,0,1-.1.148,3.747,3.747,0,0,1-.286.352c-.041.047-.085.091-.129.136-.082.082-.164.157-.252.232-.063.05-.125.1-.191.151-.032.025-.063.047-.094.069l-.1.066c-.094.063-.192.123-.292.179-.007,0-.009,0-.013.006-.094.05-.192.1-.289.141l-.186.075c-.06.025-.123.044-.186.066s-.116.038-.176.053l-.135.038c.044-.009.091-.022.135-.035L24,32.492l.075.009c.025.007.053.009.079.016a.527.527,0,0,1,.072.016,1.886,1.886,0,0,1,.192.05c.079.025.157.053.233.085.05.022.1.044.145.069a1.416,1.416,0,0,1,.154.085.212.212,0,0,1,.038.019.914.914,0,0,1,.088.06c.05.035.1.069.148.107a1.59,1.59,0,0,1,.138.116c.025.022.05.044.072.066s.066.069.1.1.047.053.069.082l.009.009c.028.038.057.072.085.11s.059.085.088.129a1.021,1.021,0,0,1,.063.1c.031.053.063.11.091.17a1.9,1.9,0,0,1,.079.186,1.606,1.606,0,0,1,.072.217,1.7,1.7,0,0,1,.053.223l.019.113c.007.038.009.075.013.116a1.845,1.845,0,0,1,.013.236,2.516,2.516,0,1,1-5.031,0,.606.606,0,0,1,0-.075v-.022a.309.309,0,0,1,0-.054c0-.028,0-.053,0-.082a.068.068,0,0,0,0-.025c0-.022.006-.044.009-.069a.477.477,0,0,1,.009-.066,1.324,1.324,0,0,1,.028-.154c.016-.066.031-.135.053-.2.013-.041.025-.079.041-.116.022-.06.044-.116.069-.17s.053-.11.082-.164a1.219,1.219,0,0,1,.06-.107.689.689,0,0,1,.066-.1c.019-.032.041-.063.063-.094a.043.043,0,0,1,.013-.013c.022-.029.044-.06.069-.088.038-.047.079-.091.119-.135.028-.029.053-.057.085-.085s.088-.082.135-.119c.025-.022.05-.041.075-.06.066-.05.138-.1.211-.145a2.533,2.533,0,0,1,.223-.123c.057-.025.113-.05.17-.072l-.789-6.467c-.028,0-.053,0-.082,0-.066,0-.132-.009-.2-.016s-.116-.013-.176-.022-.094-.013-.141-.022l-.141-.028a4.263,4.263,0,0,1-.447-.126l-.025-.009a1.02,1.02,0,0,1-.126-.047c-.06-.022-.119-.047-.176-.072s-.116-.053-.173-.082-.113-.057-.167-.088-.088-.05-.129-.075-.072-.044-.107-.066c0,0,0,0-.006-.007-.031-.019-.06-.038-.088-.057a.825.825,0,0,1-.082-.06c-.044-.031-.088-.063-.129-.1s-.085-.066-.123-.1q-.123-.1-.236-.217l-5.625,4.1a3.477,3.477,0,1,1-.745-1.016l5.625-4.107s0,0,0-.007v0c-.025-.047-.05-.094-.072-.145a.187.187,0,0,1-.013-.025c0-.009-.006-.016-.009-.025-.038-.079-.069-.16-.1-.245l-.009-.028c-.022-.059-.041-.116-.06-.176a.634.634,0,0,1-.022-.072l-.009-.038c-.013-.041-.025-.085-.035-.129q-.028-.108-.047-.217a.336.336,0,0,1-.013-.059c0-.007,0-.016,0-.022-.009-.057-.016-.11-.022-.17a1.082,1.082,0,0,1-.016-.141c-.006-.053-.009-.1-.013-.157,0-.069-.006-.142-.006-.211s0-.141.006-.211.006-.132.016-.2c.006-.085.019-.167.031-.252.019-.107.038-.214.066-.318.006-.031.016-.063.025-.094a1.448,1.448,0,0,1,.041-.145,1.735,1.735,0,0,1,.057-.167c.025-.072.05-.145.082-.214l-6.135-3.814a1.949,1.949,0,0,1-.195.167c-.044.035-.088.066-.135.1a.211.211,0,0,1-.044.028,1.246,1.246,0,0,1-.164.1.144.144,0,0,1-.044.022,1.761,1.761,0,0,1-.173.085,2.22,2.22,0,0,1-.255.091c-.072.022-.145.041-.22.057-.006,0-.016,0-.025,0-.072.016-.148.025-.223.035h-.009a2.154,2.154,0,0,1-.248.013,2.516,2.516,0,1,1,2.516-2.516,2.562,2.562,0,0,1-.028.384q-.014.094-.038.189a1.224,1.224,0,0,1-.038.145c0,.013-.006.022-.009.035L19,19.427c0-.006.009-.009.016-.016.06-.072.126-.141.192-.208a.158.158,0,0,1,.025-.022q.108-.108.226-.208a.584.584,0,0,1,.085-.069c0-.006.009-.009.013-.013.031-.025.063-.05.094-.072.053-.041.11-.082.167-.119a3.558,3.558,0,0,1,.33-.2c.044-.022.088-.047.135-.069.022-.009.047-.022.072-.035a.463.463,0,0,1,.069-.031l.132-.057c.044-.019.088-.038.135-.053.006,0,.013,0,.019-.006.057-.019.11-.038.167-.053,0,0,0-.006.006,0a.058.058,0,0,1,.022-.006c.035-.013.066-.022.1-.031a.093.093,0,0,0,.031-.006c.028-.009.053-.016.079-.022l.079-.019c.063-.016.129-.028.192-.038a1.149,1.149,0,0,1,.145-.022,1.188,1.188,0,0,1,.148-.019,3.688,3.688,0,0,1,.418-.022c.069,0,.142,0,.211.006s.138.009.208.016.116.013.176.022l.119.019,1.783-5.213c-.013-.006-.025-.016-.038-.022-.057-.035-.113-.069-.164-.107a.929.929,0,0,1-.088-.063c-.05-.038-.1-.079-.151-.119a.9.9,0,0,1-.082-.072,2.29,2.29,0,0,1-.214-.214l-.088-.1a.218.218,0,0,1-.025-.035,1.232,1.232,0,0,1-.079-.1,2.929,2.929,0,0,1-.17-.252c-.022-.035-.041-.069-.063-.1a.344.344,0,0,0-.025-.047c-.019-.038-.038-.075-.057-.116a2.058,2.058,0,0,1-.116-.277,2.53,2.53,0,0,1-.094-.3c-.025-.1-.047-.2-.063-.308-.007-.038-.013-.075-.016-.116-.009-.06-.013-.119-.016-.179a1.736,1.736,0,0,1-.006-.182,3.144,3.144,0,1,1,3.144,3.144c-.069,0-.135,0-.2-.006h-.013c-.063-.006-.126-.013-.189-.022L24,18.474c.035.019.069.038.1.06.009.006.019.009.028.016.06.031.119.069.176.107.006,0,.013.009.019.013a.8.8,0,0,1,.107.072,1.491,1.491,0,0,1,.123.088c.047.035.094.072.141.11.075.063.148.129.22.2.047.044.094.091.138.138.066.069.132.141.195.217a.038.038,0,0,1,.009.013c.063.075.123.157.182.239,0,0,0,0,0,.006v0c.037.057.075.11.11.167a2.908,2.908,0,0,1,.17.289s0,.006.006.009l.019.038c.028.06.057.119.085.182.038.082.069.164.1.248.022.06.044.123.063.189a1.543,1.543,0,0,1,.047.16,1.934,1.934,0,0,1,.047.2.632.632,0,0,1,.016.079c.013.053.019.1.028.157.013.079.022.16.029.242.006.053.009.1.013.157,0,.072.006.148.006.223s0,.151-.006.226c0,.057-.007.11-.013.167,0,.019,0,.038-.007.053-.006.057-.013.113-.022.17v.007c-.013.075-.025.148-.041.22-.006.041-.019.082-.028.123s-.022.079-.031.119a.092.092,0,0,1-.007.028L30.9,25.448a1.947,1.947,0,0,1,.123-.164c.041-.053.085-.1.129-.154a.087.087,0,0,0,.016-.019c.041-.044.082-.088.125-.129s.1-.095.148-.138.1-.088.157-.132.107-.082.163-.119a.211.211,0,0,0,.031-.022c.053-.035.11-.072.167-.1a2.061,2.061,0,0,1,.2-.113c.041-.022.082-.041.123-.063a.041.041,0,0,0,.022-.009c.044-.019.088-.038.135-.057a3.216,3.216,0,0,1,.494-.154s.006,0,.009,0,.019,0,.029-.007c.038-.006.072-.016.11-.022s.079-.016.119-.019A1.618,1.618,0,0,1,33.372,24c.047-.006.094-.009.141-.013.069,0,.142-.007.214-.007A3.457,3.457,0,0,1,37.186,27.438Z" transform="translate(-7 -7)" fill="#ff725f"/>
  </g>
</svg>
