<svg xmlns="http://www.w3.org/2000/svg" width="19.871" height="29.083" viewBox="0 0 19.871 29.083">
  <g id="noun_Flame_649889" transform="translate(-19.255 -5)">
    <g id="Group_1329" data-name="Group 1329" transform="translate(19.255 5)">
      <path id="Path_9615" data-name="Path 9615" d="M22.568,16.433C27.505,10.616,28.879,7.185,27.057,5c0,0,12.626,9.267,5.673,18.792C30.1,27.4,27.879,28.656,29.69,34.083,29.689,34.083,12.131,28.73,22.568,16.433Z" transform="translate(-19.255 -5)" fill="#ff725f"/>
      <path id="Path_9616" data-name="Path 9616" d="M58.933,53.808c-3.683,2.523-4.2,3.064-4.25,3.182,0,.01.006.021.009.031s-.023,0-.009-.031c-.311-1.116-1.744-3.665,2.421-8.242,2.3-2.531,3.627-8.13,2.909-9.464C60.014,39.284,66.892,48.368,58.933,53.808Z" transform="translate(-42.903 -28.205)" fill="#ff725f"/>
    </g>
  </g>
</svg>
