<svg xmlns="http://www.w3.org/2000/svg" width="30.284" height="28.441" viewBox="0 0 30.284 28.441">
  <g id="noun_Bank_213472" transform="translate(0 -1.458)">
    <g id="Group_1336" data-name="Group 1336" transform="translate(0 1.458)">
      <path id="Path_9625" data-name="Path 9625" d="M0,1047.99H30.284v1.835H0v-1.835Z" transform="translate(0 -1021.384)" fill="#ff725f"/>
      <path id="Path_9626" data-name="Path 9626" d="M4.364,1043.63H29.142v1.835H4.364v-1.835Z" transform="translate(-1.61 -1019.774)" fill="#ff725f"/>
      <path id="Path_9627" data-name="Path 9627" d="M16.214,1005.82l13.308,8.25H2.907Z" transform="translate(-1.073 -1005.82)" fill="#ff725f"/>
      <path id="Path_9628" data-name="Path 9628" d="M17.455,1020.35v2.34a6.125,6.125,0,0,1,2.753-1.444v-.9Zm5.506,0v.9a6.13,6.13,0,0,1,2.753,1.447v-2.342Zm2.753,11.424a6.132,6.132,0,0,1-2.753,1.447v.895h2.753v-2.342Zm-8.259,0v2.341h2.753v-.895A6.131,6.131,0,0,1,17.455,1031.774Z" transform="translate(-6.442 -1011.182)" fill="#ff725f"/>
      <path id="Path_9629" data-name="Path 9629" d="M34.908,1020.35h2.753v13.766H34.908Z" transform="translate(-12.884 -1011.183)" fill="#ff725f"/>
      <path id="Path_9630" data-name="Path 9630" d="M8.726,1020.35H11.48v13.766H8.726Z" transform="translate(-3.221 -1011.183)" fill="#ff725f"/>
      <path id="Path_9631" data-name="Path 9631" d="M20.916,1022.91a5.269,5.269,0,1,0,5.27,5.27A5.275,5.275,0,0,0,20.916,1022.91Zm-.321,2.18h.817v.921a1.366,1.366,0,0,1,1.01,1.291l-.817.006a.6.6,0,1,0-.6.545v.006a1.418,1.418,0,0,1,1.282.776,1.33,1.33,0,0,1-.259,1.525,1.426,1.426,0,0,1-.614.357v.92h-.817v-.923c-.036-.011-.072-.019-.108-.032a1.367,1.367,0,0,1-.9-1.267H20.4a.542.542,0,0,0,.372.5.652.652,0,0,0,.675-.137.491.491,0,0,0,.1-.584.613.613,0,0,0-.584-.322v-.006a1.391,1.391,0,0,1-1.382-1.355,1.369,1.369,0,0,1,1.009-1.3v-.925Z" transform="translate(-5.775 -1012.127)" fill="#ff725f"/>
    </g>
  </g>
</svg>
