<svg id="noun_Kitchen_1609690" xmlns="http://www.w3.org/2000/svg" width="22.35" height="29.121" viewBox="0 0 22.35 29.121">
  <g id="Group_817" data-name="Group 817" transform="translate(0 0)">
    <path id="Path_767" data-name="Path 767" d="M20.386,959.362a.337.337,0,0,0-.335.339v5.2a.337.337,0,0,0,.335.339H40a.337.337,0,0,0,.335-.339v-5.2a.337.337,0,0,0-.335-.339Z" transform="translate(-19.018 -959.362)" fill="#ff725f"/>
    <path id="Path_768" data-name="Path 768" d="M18.369,979.542a.337.337,0,0,0-.335.339v-.054l-1.017,3.154a.341.341,0,0,0,.047.3.334.334,0,0,0,.271.14l21.68.033a.334.334,0,0,0,.271-.139.341.341,0,0,0,.048-.3L38.3,979.777a.336.336,0,0,0-.319-.235H18.369Z" transform="translate(-17 -972.708)" fill="#ff725f"/>
    <path id="Path_769" data-name="Path 769" d="M24.236,997.973a.337.337,0,0,0-.335.339v1.954a.337.337,0,0,0,.335.339h3.511a.337.337,0,0,0,.335-.339v-1.954a.337.337,0,0,0-.335-.339Z" transform="translate(-21.564 -984.898)" fill="#ff725f"/>
    <path id="Path_770" data-name="Path 770" d="M68.915,1003.72l-2.837.008a.339.339,0,0,0,0,.677l2.837-.008a.339.339,0,0,0,0-.677Z" transform="translate(-49.238 -988.699)" fill="#ff725f"/>
    <path id="Path_771" data-name="Path 771" d="M17.359,1008.17a.339.339,0,0,0,0,.677H39.023a.339.339,0,0,0,0-.677H17.359Z" transform="translate(-17.016 -991.642)" fill="#ff725f"/>
    <path id="Path_772" data-name="Path 772" d="M17.387,1013.17a.337.337,0,0,0-.335.339v10.222a.337.337,0,0,0,.335.339H39.033a.337.337,0,0,0,.335-.339v-10.222a.337.337,0,0,0-.335-.339Zm.335.677H38.7v9.545H17.722Z" transform="translate(-17.034 -994.949)" fill="#ff725f"/>
    <path id="Path_773" data-name="Path 773" d="M54.238,1019.68a.337.337,0,0,0-.335.339v5a.337.337,0,0,0,.335.338h6.888a.337.337,0,0,0,.335-.338v-5a.337.337,0,0,0-.335-.339Z" transform="translate(-41.406 -999.254)" fill="#ff725f"/>
    <path id="Path_774" data-name="Path 774" d="M24.117,1022.08a.337.337,0,0,0-.335.339v5a.337.337,0,0,0,.335.339H31a.337.337,0,0,0,.335-.339v-5a.337.337,0,0,0-.335-.339Z" transform="translate(-21.485 -1000.841)" fill="#ff725f"/>
  </g>
</svg>
