<svg id="noun_direction_2201043" xmlns="http://www.w3.org/2000/svg" width="29.946" height="30.84" viewBox="0 0 29.946 30.84">
  <path id="Path_9247" data-name="Path 9247" d="M8.391,5.243,9.935,3.792A.431.431,0,0,0,9.749,3L1.58.534C1.15.4.883.656.985,1.093L2.934,9.4a.431.431,0,0,0,.781.237l1.7-1.6L12.71,15.8a3.246,3.246,0,0,1,.849-1.777L15.1,12.381Z" transform="translate(-0.963 -0.499)" fill="#ff725f"/>
  <path id="Path_9248" data-name="Path 9248" d="M30.78.534,22.61,3a.431.431,0,0,0-.186.794l1.544,1.451-9.031,9.613a2.042,2.042,0,0,0-.552,1.4V31.339h4.077V17.061L26.94,8.035l1.7,1.6a.431.431,0,0,0,.781-.237l1.949-8.306C31.477.656,31.21.4,30.78.534Z" transform="translate(-1.45 -0.499)" fill="#ff725f"/>
</svg>
