<svg xmlns="http://www.w3.org/2000/svg" width="30.546" height="20.836" viewBox="0 0 30.546 20.836">
  <g id="noun_ac_3968561" transform="translate(-2.5 -17.6)">
    <g id="Group_1325" data-name="Group 1325" transform="translate(2.5 17.6)">
      <path id="Path_9603" data-name="Path 9603" d="M37.075,45.4H18.554A1.256,1.256,0,0,0,17.3,46.654v1.383h21V46.654A1.209,1.209,0,0,0,37.075,45.4Z" transform="translate(-12.541 -36.461)" fill="#ff725f"/>
      <path id="Path_9604" data-name="Path 9604" d="M31.31,17.6H4.236A1.729,1.729,0,0,0,2.5,19.336v8.135a1.729,1.729,0,0,0,1.736,1.736H5.812V27.825a2.7,2.7,0,0,1,2.7-2.7H27.033a2.7,2.7,0,0,1,2.7,2.7v1.383H31.31a1.729,1.729,0,0,0,1.736-1.736V19.3A1.722,1.722,0,0,0,31.31,17.6Zm-6.817,4.18H22.725a.74.74,0,1,1,0-1.479h1.768a.728.728,0,0,1,.74.74A.8.8,0,0,1,24.493,21.78Zm4.5,0H27.226a.74.74,0,1,1,0-1.479h1.768a.728.728,0,0,1,.74.74A.748.748,0,0,1,28.995,21.78Z" transform="translate(-2.5 -17.6)" fill="#ff725f"/>
      <path id="Path_9605" data-name="Path 9605" d="M55.422,61.171l.322-.547a.772.772,0,1,0-1.318-.8l-.322.547a2.9,2.9,0,0,0,.225,3.344,1.35,1.35,0,0,1,.193,1.383l-.289.643a.818.818,0,0,0,.418,1.029.939.939,0,0,0,.289.064.8.8,0,0,0,.707-.482l.289-.643a2.9,2.9,0,0,0-.418-2.958A1.407,1.407,0,0,1,55.422,61.171Z" transform="translate(-37.223 -45.995)" fill="#ff725f"/>
      <path id="Path_9606" data-name="Path 9606" d="M40.322,61.171l.322-.547a.772.772,0,0,0-1.318-.8L39,60.368a2.9,2.9,0,0,0,.225,3.344,1.35,1.35,0,0,1,.193,1.383l-.289.643a.818.818,0,0,0,.418,1.029.939.939,0,0,0,.289.064.8.8,0,0,0,.707-.482l.289-.643a2.9,2.9,0,0,0-.418-2.958A1.407,1.407,0,0,1,40.322,61.171Z" transform="translate(-26.978 -45.995)" fill="#ff725f"/>
      <path id="Path_9607" data-name="Path 9607" d="M70.522,61.171l.322-.547a.772.772,0,0,0-1.318-.8l-.322.547a2.9,2.9,0,0,0,.225,3.344,1.35,1.35,0,0,1,.193,1.383l-.289.643a.818.818,0,0,0,.418,1.029.939.939,0,0,0,.289.064.8.8,0,0,0,.707-.482l.289-.643a2.9,2.9,0,0,0-.418-2.958A1.407,1.407,0,0,1,70.522,61.171Z" transform="translate(-47.468 -45.995)" fill="#ff725f"/>
      <path id="Path_9608" data-name="Path 9608" d="M25.222,61.171l.322-.547a.772.772,0,0,0-1.318-.8l-.322.547a2.9,2.9,0,0,0,.225,3.344,1.35,1.35,0,0,1,.193,1.383l-.289.643a.818.818,0,0,0,.418,1.029.939.939,0,0,0,.289.064.8.8,0,0,0,.707-.482l.289-.643a2.9,2.9,0,0,0-.418-2.958A1.407,1.407,0,0,1,25.222,61.171Z" transform="translate(-16.733 -45.995)" fill="#ff725f"/>
    </g>
  </g>
</svg>
