<svg id="noun_View_3345105" xmlns="http://www.w3.org/2000/svg" width="29.81" height="15.692" viewBox="0 0 29.81 15.692">
  <g id="Group_859" data-name="Group 859" transform="translate(0 0)">
    <g id="Group_858" data-name="Group 858" transform="translate(0 0)">
      <path id="Path_9244" data-name="Path 9244" d="M30.555,31.468c-.274-.3-6.66-7.268-14.688-7.268S1.452,31.164,1.178,31.468a.846.846,0,0,0,0,1.156c.274.3,6.66,7.268,14.688,7.268s14.415-6.964,14.688-7.268A.916.916,0,0,0,30.555,31.468Zm-14.688,6.69a6.113,6.113,0,1,1,6.113-6.113A6.113,6.113,0,0,1,15.866,38.158Z" transform="translate(-0.95 -24.2)" fill="#ff725f"/>
    </g>
  </g>
  <path id="Path_9245" data-name="Path 9245" d="M41.649,38A3.649,3.649,0,1,0,45.3,41.649,3.66,3.66,0,0,0,41.649,38Zm1.825,3.345a1.216,1.216,0,1,1,1.216-1.216A1.22,1.22,0,0,1,43.474,41.345Z" transform="translate(-26.733 -33.803)" fill="#ff725f"/>
</svg>
