<svg xmlns="http://www.w3.org/2000/svg" width="22.897" height="30.706" viewBox="0 0 22.897 30.706">
  <g id="noun_Fire_Extinguisher_3358736" data-name="noun_Fire Extinguisher_3358736" transform="translate(-14.845 -8.952)">
    <g id="Group_1328" data-name="Group 1328" transform="translate(14.845 8.952)">
      <g id="Group_1326" data-name="Group 1326" transform="translate(4.14 6.404)">
        <path id="Path_9609" data-name="Path 9609" d="M34.635,36.247l-.52-.067v1.335l.327.04a3.676,3.676,0,0,1,1.008.307V36.44A4.67,4.67,0,0,0,34.635,36.247ZM21.05,32.45v1.628a12.939,12.939,0,0,0,1.335.787V33.351a11.7,11.7,0,0,1-1.335-.9Z" transform="translate(-21.05 -23.175)" fill="#ff725f"/>
        <path id="Path_9610" data-name="Path 9610" d="M34.78,40.822v2.736a5.865,5.865,0,1,1-11.73,0V38.3a30.712,30.712,0,0,0,9.755,2.282l.34.033c.507.06.994.113,1.475.187Z" transform="translate(-21.715 -25.122)" fill="#ff725f"/>
        <path id="Path_9611" data-name="Path 9611" d="M34.78,24.415v5.778l-1.188-.14-.34-.04c-3.1-.347-6.613-.741-9.535-2.456-.227-.133-.454-.274-.667-.427V24.415a5.865,5.865,0,1,1,11.73,0Z" transform="translate(-21.715 -18.55)" fill="#ff725f"/>
      </g>
      <rect id="Rectangle_683" data-name="Rectangle 683" width="5.411" height="2.035" transform="translate(8.631 3.035)" fill="#ff725f"/>
      <g id="Group_1327" data-name="Group 1327" transform="translate(0 3.936)">
        <path id="Path_9612" data-name="Path 9612" d="M35.449,36.44v1.435a3.677,3.677,0,0,0-1.008-.307l-.327-.04c-.567-.08-1.181-.147-1.822-.22-2.923-.327-6.633-.741-9.909-2.442a12.937,12.937,0,0,1-1.335-.787V32.45a11.7,11.7,0,0,0,1.335.9c3.156,1.855,6.906,2.275,10.056,2.629.587.067,1.148.127,1.675.2l.52.067A4.67,4.67,0,0,1,35.449,36.44Z" transform="translate(-16.91 -20.706)" fill="#ff725f"/>
        <path id="Path_9613" data-name="Path 9613" d="M36.921,34.874H35.587A3.89,3.89,0,0,0,33.4,32.019a3.677,3.677,0,0,0-1.008-.307l-.327-.04c-.567-.08-1.181-.147-1.822-.22-2.923-.327-6.633-.741-9.909-2.442A12.939,12.939,0,0,1,19,28.222a12.751,12.751,0,0,1-2.048-1.655c-1.715-1.708-2.382-3.47-2-5.231.774-3.543,5.692-5.852,7.2-6.486v1.468c-1.715.774-5.338,2.709-5.892,5.338-.28,1.288.267,2.636,1.635,4a11.423,11.423,0,0,0,1.1.968,11.7,11.7,0,0,0,1.335.9c3.156,1.855,6.906,2.275,10.056,2.629.587.067,1.148.127,1.675.2l.52.067a4.67,4.67,0,0,1,.814.194A5.2,5.2,0,0,1,36.921,34.874Z" transform="translate(-14.845 -14.85)" fill="#ff725f"/>
      </g>
      <rect id="Rectangle_684" data-name="Rectangle 684" width="2.883" height="3.31" transform="translate(20.015 24.701)" fill="#ff725f"/>
      <rect id="Rectangle_685" data-name="Rectangle 685" width="4.685" height="1.331" transform="translate(14.401 1.691) rotate(-21.161)" fill="#ff725f"/>
      <path id="Path_9614" data-name="Path 9614" d="M41.394,18.308l-.48,1.241-2.522-.968-.007-.007-1.748-.667-.107-.04.187-.487.294-.761.427.167Z" transform="translate(-22.06 -11.503)" fill="#ff725f"/>
    </g>
  </g>
</svg>
