<svg xmlns="http://www.w3.org/2000/svg" width="30.086" height="22.154" viewBox="0 0 30.086 22.154">
  <g id="noun_Parking_4312534" transform="translate(-2.5 -15)">
    <g id="Group_1324" data-name="Group 1324" transform="translate(2.5 15)">
      <g id="Group_1321" data-name="Group 1321" transform="translate(24.84 2.623)">
        <path id="Path_9600" data-name="Path 9600" d="M81.985,23.3H81.1v1.643h.885a.822.822,0,0,0,0-1.643Z" transform="translate(-81.1 -23.3)" fill="#ff725f"/>
      </g>
      <g id="Group_1322" data-name="Group 1322" transform="translate(21.016)">
        <path id="Path_9601" data-name="Path 9601" d="M76.743,15H70.264A1.268,1.268,0,0,0,69,16.264v6.51a1.268,1.268,0,0,0,1.264,1.264h2.465v12.7a.418.418,0,0,0,.411.411h.79a.418.418,0,0,0,.411-.411V24.007h2.465a1.268,1.268,0,0,0,1.264-1.264V16.264A1.368,1.368,0,0,0,76.743,15Zm-3.034,5.278h-.885V22.4h-.98V16.612h1.865a1.833,1.833,0,0,1,0,3.666Z" transform="translate(-69 -15)" fill="#ff725f"/>
      </g>
      <g id="Group_1323" data-name="Group 1323" transform="translate(0 5.056)">
        <path id="Path_9602" data-name="Path 9602" d="M23.674,36.752H22.284l-.7-2.971A3.584,3.584,0,0,0,18.08,31H9.01A3.584,3.584,0,0,0,5.5,33.781l-.7,2.971H3.416a.917.917,0,0,0-.916.916v1.2a.922.922,0,0,0,.79.916l.758.095a3,3,0,0,0-.126.948v6.51a.689.689,0,0,0,.7.727h2.5a.683.683,0,0,0,.7-.569l.506-2.307H18.776l.506,2.307a.713.713,0,0,0,.7.569h2.5a.735.735,0,0,0,.727-.727v-6.51a4.879,4.879,0,0,0-.126-.948l.758-.095a.922.922,0,0,0,.79-.916v-1.2A.945.945,0,0,0,23.674,36.752Zm-16.086-2.5A1.482,1.482,0,0,1,9.01,33.117h9.07A1.455,1.455,0,0,1,19.5,34.255l.6,2.528a.69.69,0,0,1-.664.853H7.683a.676.676,0,0,1-.664-.853Zm2.4,8.312L6.83,42.44a.54.54,0,0,1-.506-.474,8.267,8.267,0,0,1,.032-1.517.483.483,0,0,1,.632-.411c.98.253,2.339.632,2.907.79a.514.514,0,0,1,.379.379l.19.758A.45.45,0,0,1,9.99,42.567Zm10.777-.6a.493.493,0,0,1-.506.474l-3.16.126a.5.5,0,0,1-.506-.632l.19-.758a.514.514,0,0,1,.379-.379c.6-.158,1.959-.506,2.907-.79a.5.5,0,0,1,.632.411A6.547,6.547,0,0,1,20.767,41.966Z" transform="translate(-2.5 -31)" fill="#ff725f"/>
      </g>
    </g>
  </g>
</svg>
