<svg xmlns="http://www.w3.org/2000/svg" width="23.431" height="30.443" viewBox="0 0 23.431 30.443">
  <g id="noun_Ruler_561855" transform="translate(14.648) rotate(30)">
    <path id="Path_158" data-name="Path 158" d="M10.141,7.888V1.127A1.127,1.127,0,0,0,9.015,0H1.127A1.127,1.127,0,0,0,0,1.127V28.17A1.127,1.127,0,0,0,1.127,29.3H9.015a1.127,1.127,0,0,0,1.127-1.127V25.917H7.888V24.79h2.254V22.536H6.761V21.409h3.38V19.156H7.888V18.029h2.254V15.775H6.761V14.648h3.38V12.395H7.888V11.268h2.254V9.014H6.761V7.888ZM3.38,4.507A1.127,1.127,0,1,1,4.507,3.38,1.127,1.127,0,0,1,3.38,4.507Z" transform="translate(0 0)" fill="#ff725f"/>
  </g>
</svg>
