<svg xmlns="http://www.w3.org/2000/svg" width="24.346" height="32.5" viewBox="0 0 24.346 32.5">
  <g id="noun_Elevator_991590" transform="translate(939.573 -953.525)">
    <g id="Group_1320" data-name="Group 1320" transform="translate(-939.573 953.525)">
      <path id="Path_9598" data-name="Path 9598" d="M-933.487,968.026h22.14a1.053,1.053,0,0,0,.958-.616,1.119,1.119,0,0,0-.171-1.163l-11.087-12.388a1.1,1.1,0,0,0-1.574,0l-11.087,12.388a1.1,1.1,0,0,0-.171,1.163A1.141,1.141,0,0,0-933.487,968.026Z" transform="translate(934.572 -953.525)" fill="#ff725f"/>
      <path id="Path_9599" data-name="Path 9599" d="M-911.181,1006.1h-22.14a1.053,1.053,0,0,0-.958.616,1.118,1.118,0,0,0,.171,1.163l11.087,12.388a.99.99,0,0,0,.787.342,1.114,1.114,0,0,0,.787-.342l11.087-12.388a1.1,1.1,0,0,0,.171-1.163A1.143,1.143,0,0,0-911.181,1006.1Zm-11.087,11.84-8.692-9.719h17.383Z" transform="translate(934.441 -988.109)" fill="#ff725f"/>
    </g>
  </g>
</svg>
