<svg xmlns="http://www.w3.org/2000/svg" width="16.692" height="32" viewBox="0 0 16.692 32">
  <g id="one-man-walking-svgrepo-com" transform="translate(-22.656)">
    <path id="Path_40" data-name="Path 40" d="M38.872,32.314,35.15,29.946a1.655,1.655,0,0,1-.59-.816l-1.031-4.075,0-.007a1.014,1.014,0,0,0-1-.835H27.517a1,1,0,0,0-.608.208,1.182,1.182,0,0,0-.1.061l-3.568,2.54a1.5,1.5,0,0,0-.562,1.394l1.1,5.9a1.139,1.139,0,0,0,1.093.9l.567-.03a.93.93,0,0,0,.877-1.1l-.771-4.55a.838.838,0,0,1,.3-.722l.655-.46V35.03c-.008.023-.02.043-.027.066L23.168,45.45A1.622,1.622,0,0,0,24.3,47.519l.221.06a1.706,1.706,0,0,0,.446.059,1.777,1.777,0,0,0,1.682-1.218l3.14-9.829h.261l.573,2.846a11.783,11.783,0,0,1,.187,1.68l.129,5.813a1.1,1.1,0,0,0,1.11,1.1,1.2,1.2,0,0,0,.165-.011l1.09-.151a1.321,1.321,0,0,0,1.116-1.351l-.305-5.837c-.025-.491-.1-1.287-.168-1.776l-.425-3.091a1,1,0,0,0,.029-.233V32.211l4,2.3a1.023,1.023,0,0,0,.509.136,1.036,1.036,0,0,0,.884-.5l.263-.438A1.038,1.038,0,0,0,38.872,32.314Z" transform="translate(0 -16.027)" fill="#231f20"/>
    <path id="Path_41" data-name="Path 41" d="M36.276,7.327a3.664,3.664,0,1,0-3.663-3.664A3.668,3.668,0,0,0,36.276,7.327Z" transform="translate(-6.59)" fill="#231f20"/>
  </g>
</svg>
