<svg xmlns="http://www.w3.org/2000/svg" width="28.725" height="32.139" viewBox="0 0 28.725 32.139">
  <path id="Path_161" data-name="Path 161" d="M8.145,11.9a5.82,5.82,0,1,0,4.208,9.821l7.377,4.424a5.746,5.746,0,0,0-.321,1.825,5.854,5.854,0,1,0,1.612-4l-7.377-4.424a5.34,5.34,0,0,0,0-3.649l7.377-4.424a5.806,5.806,0,1,0-1.612-4A5.746,5.746,0,0,0,19.731,9.3l-7.377,4.424A5.794,5.794,0,0,0,8.145,11.9Zm17.082,12.78a3.29,3.29,0,1,1-3.29,3.29A3.293,3.293,0,0,1,25.227,24.679Zm0-20.5a3.29,3.29,0,1,1-3.29,3.29A3.293,3.293,0,0,1,25.227,4.181ZM8.145,21.009a3.29,3.29,0,1,1,3.29-3.29A3.293,3.293,0,0,1,8.145,21.009Z" transform="translate(-2.325 -1.65)" fill="#184d47"/>
</svg>
