<svg xmlns="http://www.w3.org/2000/svg" width="63" height="66.073" viewBox="0 0 63 66.073">
  <g id="Group_1846" data-name="Group 1846" transform="translate(0.439)">
    <text id="My_Units" data-name="My Units" transform="translate(-0.439 62.073)" fill="#99b2af" font-size="16" font-family="Roboto-Medium, Roboto" font-weight="500"><tspan x="0" y="0">My Units</tspan></text>
    <g id="ic_domain_24px" transform="translate(12.561)">
      <path id="Path_508" data-name="Path 508" d="M20.889,10.556V3H2V37H39.778V10.556ZM9.556,33.222H5.778V29.444H9.556Zm0-7.556H5.778V21.889H9.556Zm0-7.556H5.778V14.333H9.556Zm0-7.556H5.778V6.778H9.556Zm7.556,22.667H13.333V29.444h3.778Zm0-7.556H13.333V21.889h3.778Zm0-7.556H13.333V14.333h3.778Zm0-7.556H13.333V6.778h3.778ZM36,33.222H20.889V29.444h3.778V25.667H20.889V21.889h3.778V18.111H20.889V14.333H36ZM32.222,18.111H28.444v3.778h3.778Zm0,7.556H28.444v3.778h3.778Z" transform="translate(-2 -3)" fill="#99b2af"/>
    </g>
  </g>
</svg>
