<svg xmlns="http://www.w3.org/2000/svg" width="67" height="70" viewBox="0 0 67 70">
  <g id="Group_1845" data-name="Group 1845" transform="translate(0 2)">
    <text id="My_Visits" data-name="My Visits" transform="translate(0 64)" fill="#99b2af" font-size="16" font-family="Roboto-Medium, Roboto" font-weight="500"><tspan x="0" y="0">My Visits</tspan></text>
    <g id="Iconly_Light_Calendar" data-name="Iconly/Light/Calendar" transform="translate(18 0)">
      <g id="Calendar" transform="translate(0 0)">
        <line id="Line_200" x2="30.261" transform="translate(0.179 12.587)" fill="none" stroke="#99b2af" stroke-linecap="round" stroke-linejoin="round" stroke-width="4"/>
        <line id="Line_201" x2="0.018" transform="translate(22.85 19.226)" fill="none" stroke="#99b2af" stroke-linecap="round" stroke-linejoin="round" stroke-width="4"/>
        <line id="Line_202" x2="0.018" transform="translate(15.307 19.226)" fill="none" stroke="#99b2af" stroke-linecap="round" stroke-linejoin="round" stroke-width="4"/>
        <line id="Line_203" x2="0.018" transform="translate(7.748 19.226)" fill="none" stroke="#99b2af" stroke-linecap="round" stroke-linejoin="round" stroke-width="4"/>
        <line id="Line_204" x2="0.018" transform="translate(22.85 25.834)" fill="none" stroke="#99b2af" stroke-linecap="round" stroke-linejoin="round" stroke-width="4"/>
        <line id="Line_205" x2="0.018" transform="translate(15.307 25.834)" fill="none" stroke="#99b2af" stroke-linecap="round" stroke-linejoin="round" stroke-width="4"/>
        <line id="Line_206" x2="0.018" transform="translate(7.748 25.834)" fill="none" stroke="#99b2af" stroke-linecap="round" stroke-linejoin="round" stroke-width="4"/>
        <line id="Line_207" y2="6.341" transform="translate(22.174)" fill="none" stroke="#99b2af" stroke-linecap="round" stroke-linejoin="round" stroke-width="4"/>
        <line id="Line_208" y2="6.341" transform="translate(8.441)" fill="none" stroke="#99b2af" stroke-linecap="round" stroke-linejoin="round" stroke-width="4"/>
        <path id="Path" d="M22.505,1.579H8.111C3.118,1.579,0,4.328,0,9.382V24.591c0,5.133,3.118,7.946,8.111,7.946H22.489c5.008,0,8.111-2.765,8.111-7.819V9.382C30.616,4.328,27.513,1.579,22.505,1.579Z" transform="translate(0 1.464)" fill="none" stroke="#99b2af" stroke-linecap="round" stroke-linejoin="round" stroke-width="4"/>
      </g>
    </g>
  </g>
</svg>
