<svg xmlns="http://www.w3.org/2000/svg" width="92" height="70" viewBox="0 0 92 70">
  <g id="Group_1847" data-name="Group 1847" transform="translate(-4.902 2)">
    <text id="Notifications" transform="translate(50.902 64)" fill="#99b2af" font-size="16" font-family="Roboto-Medium, Roboto" font-weight="500"><tspan x="-45" y="0">Notifications</tspan></text>
    <g id="Iconly_Light_Notification" data-name="Iconly/Light/Notification" transform="translate(36.902)">
      <g id="Notification">
        <path id="Path_425" d="M0,20.038v-.372a6.12,6.12,0,0,1,1.023-3.092,8.28,8.28,0,0,0,2.029-3.933c0-1.133,0-2.282.1-3.415C3.663,3.771,9.056,0,14.384,0h.132c5.327,0,10.721,3.771,11.249,9.226.1,1.133,0,2.282.082,3.415a8.424,8.424,0,0,0,2.029,3.949A5.961,5.961,0,0,1,28.9,19.666v.356a6.063,6.063,0,0,1-1.435,4.063,7.659,7.659,0,0,1-4.849,2.331,76.632,76.632,0,0,1-16.345,0A7.743,7.743,0,0,1,1.42,24.085,6.126,6.126,0,0,1,0,20.038Z" transform="translate(0)" fill="none" stroke="#99b2af" stroke-linecap="round" stroke-linejoin="round" stroke-width="4"/>
        <path id="Path_421" d="M0,0A5.2,5.2,0,0,0,3.463,1.916,5.25,5.25,0,0,0,7.29.858,4.906,4.906,0,0,0,8.181,0" transform="translate(10.293 32.048)" fill="none" stroke="#99b2af" stroke-linecap="round" stroke-linejoin="round" stroke-width="4"/>
      </g>
    </g>
  </g>
</svg>
