<svg xmlns="http://www.w3.org/2000/svg" xmlns:xlink="http://www.w3.org/1999/xlink" width="250" height="66.229" viewBox="0 0 250 66.229">
  <defs>
    <clipPath id="clip-path">
      <rect id="Rectangle_11" data-name="Rectangle 11" width="168.498" height="66.229" fill="none"/>
    </clipPath>
    <clipPath id="clip-path-2">
      <rect id="Rectangle_12" data-name="Rectangle 12" width="60.01" height="66.229" fill="#ff725f"/>
    </clipPath>
  </defs>
  <g id="Group_1264" data-name="Group 1264" transform="translate(-160 -21.403)">
    <g id="Group_4" data-name="Group 4" transform="translate(241.502 21.403)">
      <g id="Group_3" data-name="Group 3" clip-path="url(#clip-path)">
        <path id="Path_9" data-name="Path 9" d="M130.017,41.863c0-3.121,2.184-5.8,8.07-5.8h8.962V34.461c0-3.79-2.23-5.618-6.733-5.618-4.057,0-6.287,1.517-6.287,4.5a6.424,6.424,0,0,0,.045.8h-3.3a11.877,11.877,0,0,1-.089-1.338c0-4.369,3.745-7,9.72-7,6.465,0,10.21,3.21,10.21,8.961V48.194h-3.567c.045-1.026.134-3.077.179-5.217h-.045c-.759,3.389-3.523,5.574-9.007,5.574-4.994,0-8.159-2.542-8.159-6.688m17.032-2.9v-.313H138.4c-3.611,0-5.039,1.07-5.039,3.211,0,2.229,2.051,3.656,5.528,3.656,4.994,0,8.16-2.542,8.16-6.554" transform="translate(-87.102 -17.292)" fill="#184d47"/>
        <path id="Path_10" data-name="Path 10" d="M207.956,41.863c0-3.121,2.184-5.8,8.07-5.8h8.962V34.461c0-3.79-2.23-5.618-6.733-5.618-4.058,0-6.287,1.517-6.287,4.5a6.424,6.424,0,0,0,.045.8h-3.3a11.877,11.877,0,0,1-.089-1.338c0-4.369,3.745-7,9.72-7,6.465,0,10.21,3.21,10.21,8.961V48.194h-3.567c.045-1.026.134-3.077.179-5.217h-.045c-.759,3.389-3.523,5.574-9.007,5.574-4.994,0-8.159-2.542-8.159-6.688m17.032-2.9v-.313h-8.65c-3.611,0-5.039,1.07-5.039,3.211,0,2.229,2.051,3.656,5.528,3.656,4.994,0,8.16-2.542,8.16-6.554" transform="translate(-139.316 -17.292)" fill="#184d47"/>
        <path id="Path_11" data-name="Path 11" d="M304.933,42.577h-.044c-.8,3.656-4.192,5.975-8.695,5.975-6.2,0-10.3-4.415-10.3-11.5,0-6.822,4.28-11.236,10.523-11.236,4.77,0,7.712,1.961,8.516,4.993h.045V26.169H308.5V57.023h-3.567Zm0-5.217V36.291c0-4.415-3.077-7.268-7.937-7.268-4.414,0-7.535,3.166-7.535,8.026,0,5.127,2.987,8.293,7.446,8.293,4.9,0,8.026-3.121,8.026-7.981" transform="translate(-191.53 -17.293)" fill="#184d47"/>
        <path id="Path_12" data-name="Path 12" d="M371.262,41.863c0-3.121,2.184-5.8,8.07-5.8h8.962V34.461c0-3.79-2.23-5.618-6.733-5.618-4.058,0-6.287,1.517-6.287,4.5a6.424,6.424,0,0,0,.045.8h-3.3a11.876,11.876,0,0,1-.089-1.338c0-4.369,3.745-7,9.72-7,6.465,0,10.21,3.21,10.21,8.961V48.194h-3.567c.045-1.026.134-3.077.179-5.217h-.045c-.759,3.389-3.523,5.574-9.007,5.574-4.994,0-8.159-2.542-8.159-6.688m17.032-2.9v-.313h-8.65c-3.611,0-5.039,1.07-5.039,3.211,0,2.229,2.051,3.656,5.528,3.656,4.994,0,8.16-2.542,8.16-6.554" transform="translate(-248.72 -17.292)" fill="#184d47"/>
        <path id="Path_13" data-name="Path 13" d="M451.9,26.168h3.567l-.089,6.376h.045c1.026-3.834,3.3-6.732,8.026-6.732,4.948,0,7.579,3.3,7.579,8.6a38.942,38.942,0,0,1-.223,3.924h-3.255a25.243,25.243,0,0,0,.179-3.165c0-4.058-1.516-6.153-5.128-6.153-4.5,0-7.133,3.924-7.133,9.408v9.765H451.9Z" transform="translate(-302.744 -17.292)" fill="#184d47"/>
        <rect id="Rectangle_5" data-name="Rectangle 5" width="3.568" height="30.899" transform="translate(26.86)" fill="#184d47"/>
        <path id="Path_14" data-name="Path 14" d="M3.4,69.775a2.68,2.68,0,0,1,1.029-2.292H.627a4.7,4.7,0,0,0-.568,2.292c0,4.147,3.167,6.693,8.162,6.693,3.167,0,5.43-.74,6.91-2.013V71.429a9.12,9.12,0,0,1-6.2,2c-3.472,0-5.528-1.426-5.528-3.657" transform="translate(-0.04 -45.209)" fill="#184d47"/>
        <path id="Path_15" data-name="Path 15" d="M16.9,58.546c-1.448,0-3.516,2.39-3.927,3.018a6.309,6.309,0,0,1,2.653-.49c2.17.084,4.34.062,6.513.062H23.91v-2.59Z" transform="translate(-8.692 -39.222)" fill="#184d47"/>
        <path id="Path_16" data-name="Path 16" d="M11.789,25.794c-5.975,0-9.718,2.634-9.718,7,0,.37.032,3.45.076,4.462a5.652,5.652,0,0,1,3.276-2.416c-.011-1.545-.011-1.426-.011-1.5,0-2.993,2.231-4.505,6.29-4.505,4.505,0,6.736,1.828,6.736,5.615v.522h.011v8.467c-.044,2.046.044,3.515,0,4.582v.163h3.558V34.761c0-5.757-3.754-8.967-10.219-8.967" transform="translate(-1.387 -17.28)" fill="#184d47"/>
        <rect id="Rectangle_6" data-name="Rectangle 6" width="3.568" height="4.732" transform="translate(35.779 26.173)" fill="#d05b45"/>
        <rect id="Rectangle_7" data-name="Rectangle 7" width="3.412" height="24.185" transform="translate(165.008 34.963)" fill="#184d47"/>
        <path id="Path_17" data-name="Path 17" d="M439.093,105.313v19.812c0,5.808-2.356,8.57-6.742,8.57-3.382,0-5.576-1.751-6.216-4.845h-3.22c.724,5,4.165,7.932,9.518,7.932,6.417,0,10.072-4.1,10.072-11.778v-19.69Z" transform="translate(-283.323 -70.553)" fill="#184d47"/>
        <path id="Path_18" data-name="Path 18" d="M56.623,131.993c-6.417,0-10.154-4.264-10.154-11.941v-14.74h3.412v14.862c0,5.808,2.356,8.57,6.742,8.57" transform="translate(-31.131 -70.552)" fill="#184d47"/>
        <line id="Line_1" data-name="Line 1" y2="3.087" transform="translate(112.664 58.354)" fill="#184d47"/>
        <line id="Line_2" data-name="Line 2" y2="3.087" transform="translate(112.664 58.192)" fill="#184d47"/>
        <path id="Path_19" data-name="Path 19" d="M126.46,141.1v-.041c-3.33-.731-5.443-3.818-5.443-7.92,0-5.645,4.021-9.382,10.479-9.382,6.214,0,10.235,3.9,10.235,9.585,0,4.346-1.787,7.026-4.549,7.757v.041h4.224v3.208H75.6V141.1Zm4.752,0h.975c4.021,0,6.621-2.8,6.621-7.229,0-4.021-2.884-6.864-7.311-6.864-4.671,0-7.555,2.721-7.555,6.783,0,4.468,2.843,7.311,7.27,7.311" transform="translate(-50.643 -82.911)" fill="#184d47"/>
        <path id="Path_20" data-name="Path 20" d="M326.823,149.075v-.037h-5.246v0h-.725c-4.427,0-7.27-2.843-7.27-7.31a6.285,6.285,0,0,1,3.985-6.124H312.3a9.269,9.269,0,0,0-1.645,5.474c0,4.1,2.112,7.189,5.442,7.92v.04H270.22v3.25h60.827v-3.209Z" transform="translate(-181.029 -90.842)" fill="#184d47"/>
        <path id="Path_21" data-name="Path 21" d="M7.63,123.76v14.932c0,4.261-2.851,6.97-7.63,7.122V148.9c6.662-.21,10.716-4.278,10.716-10.211V123.76Z" transform="translate(0 -82.911)" fill="#184d47"/>
        <rect id="Rectangle_8" data-name="Rectangle 8" width="3.493" height="4.102" transform="translate(76.306 34.761)" fill="#184d47"/>
        <rect id="Rectangle_9" data-name="Rectangle 9" width="3.493" height="4.102" transform="translate(81.661 34.761)" fill="#184d47"/>
        <path id="Path_22" data-name="Path 22" d="M419.227,123.76c-1.814,0-4.4,2.993-4.919,3.781a7.9,7.9,0,0,1,3.323-.614c2.717.1,5.436.077,8.159.077h2.217V123.76Z" transform="translate(-277.558 -82.911)" fill="#184d47"/>
        <rect id="Rectangle_10" data-name="Rectangle 10" width="3.568" height="4.732" transform="translate(164.931 61.496)" fill="#d05b45"/>
      </g>
    </g>
    <g id="Group_6" data-name="Group 6" transform="translate(160 21.403)">
      <g id="Group_5" data-name="Group 5" clip-path="url(#clip-path-2)">
        <path id="Path_23" data-name="Path 23" d="M9.732,227.214a7.8,7.8,0,0,1,3-6.674H1.656A13.672,13.672,0,0,0,0,227.214C0,239.287,9.225,246.7,23.776,246.7c9.225,0,15.819-2.155,20.13-5.862v-8.81c-4.121,3.707-10.335,5.831-18.07,5.831-10.112,0-16.1-4.151-16.1-10.647" transform="translate(0 -180.474)" fill="#ff725f"/>
        <path id="Path_24" data-name="Path 24" d="M79.792,173.267c-4.218,0-10.241,6.958-11.44,8.79a18.384,18.384,0,0,1,7.729-1.427c6.319.243,12.641.18,18.972.18h5.155v-7.542Z" transform="translate(-55.934 -141.789)" fill="#ff725f"/>
        <path id="Path_25" data-name="Path 25" d="M38.953,0c-17.4,0-28.309,7.669-28.309,20.375,0,1.077.095,10.045.222,12.992,1.807-3.042,4.914-5.545,9.542-7.035-.032-4.5-.032-4.151-.032-4.373,0-8.714,6.5-13.119,18.324-13.119,13.124,0,19.623,5.324,19.623,16.351v1.521h.032V51.367c-.126,5.957.127,10.235,0,13.341v.475H68.72V26.111C68.72,9.348,57.784,0,38.953,0" transform="translate(-8.71 0)" fill="#ff725f"/>
      </g>
    </g>
  </g>
</svg>
