<svg xmlns="http://www.w3.org/2000/svg" width="30.62" height="21.128" viewBox="0 0 30.62 21.128">
  <g id="noun_interior_3108040" transform="translate(55 -224.5)">
    <g id="Group_904" data-name="Group 904" transform="translate(-55 224.5)">
      <path id="Path_9261" data-name="Path 9261" d="M-32.923,415.4h-20.1A1.971,1.971,0,0,0-55,417.372v5.487h1.972v1.978h2.119v-1.978h15.867v1.978h2.119v-1.978h1.972v-5.487A1.963,1.963,0,0,0-32.923,415.4Z" transform="translate(55 -403.709)" fill="#a9a9a9"/>
      <path id="Path_9262" data-name="Path 9262" d="M-20.675,291.978h6.724v3.184h2.413v-3.184h6.724v3.184H-2.7v-4.1A2.265,2.265,0,0,0-4.961,288.8H-20.534a2.268,2.268,0,0,0-2.266,2.266v4.1h2.119v-3.184Z" transform="translate(24.772 -284.862)" fill="#a9a9a9"/>
      <path id="Path_9263" data-name="Path 9263" d="M365.635,336.2h-1.249v11.121H363.4v1.115h3.221v-1.115h-.986Z" transform="translate(-337.777 -329.36)" fill="#a9a9a9"/>
      <path id="Path_9264" data-name="Path 9264" d="M340.45,224.5h-5.328l-.723,5.462h6.773Z" transform="translate(-310.553 -224.5)" fill="#a9a9a9"/>
    </g>
  </g>
</svg>
