<svg id="noun_Shower_693" xmlns="http://www.w3.org/2000/svg" width="32.147" height="29.384" viewBox="0 0 32.147 29.384">
  <path id="Path_132" data-name="Path 132" d="M49.169,8.162,47.5,9.081l.819.819,1.608-.965Z" transform="translate(-32.372 -5.198)" fill="#a9a9a9"/>
  <path id="Path_133" data-name="Path 133" d="M54.048,12.813l-1.5,1.065.85.849,1.439-1.106Z" transform="translate(-35.807 -8.158)" fill="#a9a9a9"/>
  <path id="Path_134" data-name="Path 134" d="M58.606,17.025,57.345,18.3l.794.794,1.268-1.255Z" transform="translate(-39.055 -11.599)" fill="#a9a9a9"/>
  <path id="Path_135" data-name="Path 135" d="M63.073,21.269l-1.09,1.419.85.85,1.037-1.458Z" transform="translate(-42.2 -14.497)" fill="#a9a9a9"/>
  <path id="Path_136" data-name="Path 136" d="M68.05,26.042l-.931,1.551.852.852.886-1.581Z" transform="translate(-45.684 -17.755)" fill="#a9a9a9"/>
  <path id="Path_137" data-name="Path 137" d="M41.268,12.405l-1.785.984.907.907,1.729-1.039Z" transform="translate(-26.92 -7.899)" fill="#a9a9a9"/>
  <path id="Path_138" data-name="Path 138" d="M46.9,17.745,45.282,18.9l.931.931,1.569-1.2Z" transform="translate(-30.865 -12.091)" fill="#a9a9a9"/>
  <path id="Path_139" data-name="Path 139" d="M52.527,22.951,51.15,24.342l.776.776,1.391-1.377Z" transform="translate(-34.843 -15.641)" fill="#a9a9a9"/>
  <path id="Path_140" data-name="Path 140" d="M57.792,27.9l-1.2,1.57.93.93,1.15-1.618Z" transform="translate(-38.544 -19.028)" fill="#a9a9a9"/>
  <path id="Path_141" data-name="Path 141" d="M63.494,33.325l-1.039,1.729.923.923,1-1.773Z" transform="translate(-42.524 -22.733)" fill="#a9a9a9"/>
  <path id="Path_142" data-name="Path 142" d="M33.931,16.821l-1.393.769.986.986,1.352-.81Z" transform="translate(-22.172 -11.453)" fill="#a9a9a9"/>
  <path id="Path_143" data-name="Path 143" d="M40.257,22.919l-1.264.9,1,1,1.224-.938Z" transform="translate(-26.564 -15.608)" fill="#a9a9a9"/>
  <path id="Path_144" data-name="Path 144" d="M46.868,29.2l-1.076,1.086.757.757,1.085-1.076Z" transform="translate(-31.174 -19.887)" fill="#a9a9a9"/>
  <path id="Path_145" data-name="Path 145" d="M52.859,34.95l-.937,1.224,1,1,.9-1.264Z" transform="translate(-35.351 -23.82)" fill="#a9a9a9"/>
  <path id="Path_146" data-name="Path 146" d="M59.225,41.092l-.81,1.352.986.986.778-1.384Z" transform="translate(-39.761 -28.012)" fill="#a9a9a9"/>
  <path id="Path_147" data-name="Path 147" d="M27.934,15.688l0-13.392,0-.023,0-.019v0A2.056,2.056,0,0,0,24.434.6c-.033.033-.065.069-.1.1l0,0L22.375,2.661c-.255-.253-.564-.563-.909-.914C20.727,1,20.361.818,19.575.991a4.983,4.983,0,0,0-1.731,1.026l2.718,2.718L21,5.174l2.721,2.72a4.979,4.979,0,0,0,1.026-1.731c.173-.786-.007-1.154-.758-1.893-.221-.218-.426-.421-.611-.606l.676-.677L25.3,1.743l.008.008a.638.638,0,0,1,.055-.064.708.708,0,0,1,1.208.451v13.55H0s.193.678,2.06,7.871C2.8,26.4,3.406,26.319,4.988,26.334h1.1l0,.009h0L5.57,29.384H7.2l.649-3.05H24.3l.649,3.05h1.631l-.516-3.042h0l0-.009h1.1c1.582-.014,2.19.07,2.929-2.775,1.866-7.192,2.06-7.871,2.06-7.871Z" transform="translate(0 0)" fill="#a9a9a9"/>
</svg>
